<?xml version="1.0" encoding="utf-8"?>
<!-- Generator: Adobe Illustrator 27.0.0, SVG Export Plug-In . SVG Version: 6.00 Build 0)  -->
<svg version="1.1" id="Ebene_1" xmlns="http://www.w3.org/2000/svg" xmlns:xlink="http://www.w3.org/1999/xlink" x="0px" y="0px"
	 viewBox="0 0 500 500" style="enable-background:new 0 0 500 500;" xml:space="preserve">
<style type="text/css">
	.st0{fill:#ECEDED;}
	.st1{fill:#C7C6C5;}
	.st2{fill:#FEFDFD;}
	.st3{fill:#848484;}
	.st4{fill:#DCDCDC;}
	.st5{fill:#202020;}
	.st6{fill:#40403E;}
	.st7{fill:#6D6D6C;}
	.st8{fill:#FBFAFA;}
	.st9{fill:#2C2C2C;}
	.st10{fill:#1A1919;}
	.st11{fill:#969695;}
	.st12{fill:#BABABA;}
	.st13{fill:#A8A8A8;}
	.st14{fill:#656665;}
	.st15{fill:#8C8B8A;}
	.st16{fill:#C6C5C4;}
	.st17{fill:#3A3A3A;}
	.st18{fill:#525151;}
	.st19{fill:#F7F5F6;}
	.st20{fill:#834E4E;}
	.st21{fill:#B5B5B5;}
	.st22{fill:#313131;}
	.st23{fill:#767676;}
	.st24{fill:#9D9C9C;}
	.st25{fill:#020203;}
	.st26{fill:#444545;}
	.st27{fill:#7B7C7C;}
</style>
<g>
	<path class="st0" d="M180,91.1c1.7-1.5,3.4-3,5-4.5c5,2.9,10,5.8,15,8.7c0.5,0.3,0.9,0.4,1.5,0c4.8-2.8,9.6-5.6,14.5-8.4
		c1.3-0.8,2.6-1.5,4-2.4c-0.4-0.3-0.7-0.5-1-0.7c-4.4-2.6-8.9-5.1-13.3-7.7c-0.2-0.1-0.4-0.4-0.6-0.7c6.6-2.3,13.3-3.8,20.2-4.9
		c0.5-0.1,1-0.1,1.5-0.2c0.1,0,0.1,0,0.2,0c0.1,0,0.3,0,0.4,0c0.2,0.1,0.5,0.3,0.7,0.4c0.4,0.1,0.9,0.1,1.4,0.2
		c1.2,0.2,2.4,0.6,3.5,0.4c1.7-0.4,3.4-0.1,5.1-0.1c3.8,0,7.6,0,11.4,0.2c3.8,0.2,7.5,0.8,11.1,2c1.9,0.7,4,1.1,6,1.5
		c1.6,0.4,3.2,0.7,4.8,1.1c1.5,0.4,3,1.1,4.4,1.7c1.7,0.7,3.4,1.4,5,2.3c1.3,0.7,2.6,1.4,3.8,2.2c2,1.3,3.9,2.6,5.8,3.9
		c1.2,0.9,2.2,2.2,3.4,3.1c1.9,1.4,3.3,3.2,4.5,5.2c2,3.3,3,6.8,2.9,10.6c-0.1,2.4,0,4.8,0,7.2c0,1.2-0.3,2.4-0.3,3.6
		c0,0.4,0.1,0.9,0.2,1.3c-0.3,0.3-0.6,0.5-0.8,0.9c-1.7,3.1-3.9,5.7-6.5,8c-0.3,0.3-0.8,0.3-1.2,0.4c-0.4-0.3-0.7-0.6-1.1-0.8
		c-4.6-2.7-9.2-5.3-13.7-8c-0.9-0.5-1.5-0.5-2.3,0c-5.2,3.1-10.4,6.1-15.6,9.1c-0.8,0.5-1.6,1-2.6,1.6c5.6,3.2,11,6.3,16.3,9.3
		c-0.4,0.2-0.7,0.5-1.1,0.6c-3.5,1-7,2.1-10.6,3c-5.8,1.4-11.7,2.1-17.7,2.3c-4.4,0.2-8.9,0.1-13.3-0.2c-3.6-0.2-7.2-0.7-10.8-1.2
		c-2.8-0.4-5.6-1.1-8.4-1.7c-7.2-2.1-14.2-4.9-20.6-8.9c-5.4-3.4-10.2-7.2-13.4-12.8c-4.4-7.9-4.6-15.8-0.2-23.8
		C178.4,93.7,179.2,92.4,180,91.1z M256.4,126.3c1.1-0.4,2.2-0.8,3.4-1.3c5-2.1,9.6-4.6,13.3-8.6c4.7-5.3,5.1-12.6,0.9-18.3
		c-2-2.7-4.5-4.7-7.3-6.4c-6.4-3.9-13.4-5.9-20.8-6.6c-7.5-0.7-15-0.5-22.4,1.4c-5.6,1.4-10.7,3.7-15.4,7.2c-1.6,0-2.9,1-4.2,1.8
		c-1.6,0.9-2.2,2.7-2.8,4.2c-2.1,4.7-2,9.6-0.1,14.4c1.5,3.9,4.5,6.7,8,8.9c1.4,0.9,3,1.6,4.6,2.2c2.1,0.8,4.1,1.6,6.3,2.1
		c2,0.5,4.1,0.8,6.2,1.1c1.9,0.3,3.9,0.8,5.9,0.8c6.1,0.1,12.2,0.1,18.3-0.5C252.5,128.5,254.4,127.3,256.4,126.3
		C256.4,126.4,256.4,126.3,256.4,126.3z"/>
	<path class="st1" d="M408.3,264.9c0.1,1.5,0.3,3.1,0.4,4.6c0.2,4.2,0.5,8.4,0.7,12.5c0,0.1-0.1,0.2-0.1,0.3
		c-0.2,0.1-0.5,0.2-0.7,0.3c-0.1-0.5-0.2-1.1-0.3-1.7c-0.4,0.1-0.6,0.2-0.9,0.4c-3.2,1.8-6.5,3.6-9.7,5.5c-0.8,0.5-1.4,0.5-2.3,0
		c-1.5-0.7-3.1-1.3-4.6-2c-0.5-0.2-1-0.5-1.3-1c-5.7-6.8-11.4-13.7-17-20.5c-0.3-0.4-0.6-0.8-0.6-1.3c-0.1-0.9-0.1-1.8-0.2-2.7
		c0.2-0.2,0.5-0.4,0.5-0.6c0.2-0.9,0.3-1.8,0.5-2.7c0.7-3.1,1.9-5.8,4.6-7.8c1.9-1.4,3.7-3,5.5-4.6c2-1.8,5.7-2.7,8.2-0.8
		c2.2,1.8,4.5,3.5,6.6,5.5c1.8,1.6,3.3,3.5,4.9,5.2c2.5,2.8,4.1,6,4.6,9.7C407.1,264.1,407.4,264.7,408.3,264.9z"/>
	<path class="st2" d="M259.5,161.3c0,3.6,0.1,7.1,0.1,10.7c0,1.1,0.3,1.4,1.4,1.7c4.7,1.2,9.3,2.5,13.9,3.9
		c9.2,2.9,17,8.1,24.2,14.3c0.2,0.1,0.3,0.3,0.4,0.4c0.1,0.1,0.1,0.1,0.2,0.2l0,0c0,0.1,0.1,0.1,0.2,0.2v0c1.1,1.6,2.3,3.1,3.3,4.7
		c2,2.9,3.1,6.1,3.4,9.8c-1.1,0-2.2,0-3.2,0c-0.3,0-0.7,0.2-1,0.3c0,0.1,0,0.1-0.1,0.1c0,0.2,0,0.3,0,0.5c0,0.1,0,0.3,0,0.4
		c0,0.2,0,0.4,0,0.7c0,0.1,0,0.1,0.1,0.2c0,1-0.1,2-0.1,2.9c0,0.3-0.1,0.6-0.1,0.9c-0.1,0.5,0.2,0.6,0.7,0.6c1.2,0,2.4,0,3.6,0
		c0.1,0.3,0.1,0.6,0.2,0.8c-0.1,0.6-0.2,1.2-0.3,1.8c-0.7,2.6-1.6,5.2-3.1,7.4c-1.7-0.4-3.4-0.8-5.1-1.1c-3.3-0.6-6.5-1.1-9.8-1.7
		c-1.6-0.3-3.1-0.7-4.7-1.1c1.6-2.7,2.6-5.6,2.9-8.7c0.1-0.1,0.2-0.1,0.2-0.2c0.5-2.6,0.5-5.3-0.4-7.8c-1.4-4-4-7-7.3-9.5
		c-4-3.1-8.6-5.2-13.2-7c-2-0.8-4-1.4-6.1-2.2c0,0.6,0,0.9,0,1.3c0,0.3,0,0.6,0,0.9c-0.2,1,0.3,1.4,1.3,1.7c1.6,0.5,3.2,1.1,4.8,1.9
		c4.9,2.3,9.5,5,13,9.3c2.4,3,3.8,6.3,3.7,10.2c-0.4-0.3-0.9-0.4-1.2-0.8c-0.7-1.1-1.2-2.3-1.9-3.4c-1-1.9-2-3.9-3-5.7
		c-0.4-0.7-1.2-1.1-1.7-1.7c-1.5-2-3.6-3.3-5.6-4.5c-2.1-1.3-4.3-2.3-6.5-3.4c-0.9-0.4-1.8-0.8-2.9-1.4c0,2.3,0,4.4,0,6.4
		c0,1.1,0,2.3,0,3.4c-0.1,0.6-0.3,1.1-0.5,1.7c-0.4-1.2-1.2-2.5-1.2-3.7c0-2.3,0.3-4.5,0.5-6.8c0.1-1.6,0.5-3.3,0.4-4.9
		c-0.1-3.6-0.4-7.2-0.6-10.9c-0.1-2.5-0.1-5.1-0.2-7.6c0-1-0.2-2-0.4-3c0-0.1,0.1-0.3,0.1-0.4c0-0.1,0-0.2,0.1-0.3
		c0-0.4,0-0.8,0-1.2C258.6,161.5,259,161.4,259.5,161.3z"/>
	<path class="st1" d="M93.2,226c-1.3-2.6-1.6-5.4-1.6-8.3c-0.1-6.7,2.4-12.4,6.7-17.4c0.3,0,0.6,0.1,0.8,0c1.4-0.7,2.9-1.5,4.3-2.3
		c0.7-0.4,1.3-0.8,2-1.2c1.6,2.8,3.9,4.3,6.8,4.6c3,0.4,6.1,0.4,9.2,0.5c1.3,0,2.6-0.4,3.8-0.8c1.6-0.5,2.6-1.9,3.4-3.5
		c1.3,0.8,2.7,1.5,3.8,2.3c2.2,1.7,4.4,3.4,6.5,5.2c0.3,0.2,0.5,0.5,0.8,0.8c0.2,0.5,0.5,0.9,0.6,1.4c0.8,2.5,1.7,4.9,1.9,7.5
		c0.4,4.4,0.1,8.7-1.9,12.7c-0.3,0.6-0.5,1.4-0.7,2.1c-0.1,0-0.2,0-0.3,0c-0.4,0.1-0.8,0.2-1.2,0.3c-1.1,0-2.1,0-3.2,0
		c-0.1,0-0.3-0.1-0.4-0.1c-0.2,0-0.4-0.1-0.6-0.1c-0.1,0-0.3-0.1-0.4-0.1c-1-0.2-2.1-0.4-3.1-0.6c0.1-0.4,0.1-0.8,0.2-1.1
		c0.9-2.6,1-5.3,0.4-7.9c-1.9-7.6-9-12.1-15.6-11.7c-5.3,0.3-9.2,2.7-12.1,7.1c-1.9,2.9-2.5,6-2.4,9.4
		C98.4,225.1,95.8,225.6,93.2,226z"/>
	<path class="st1" d="M382.9,202.7c2,2.7,3.1,5.7,3.8,8.9c0.8,3.9,0.8,7.8,0,11.6c-0.1,0.5-0.3,1-0.5,1.5c-0.2,0.1-0.4,0.1-0.6,0.2
		c-2.5,1.3-5.2,1.7-8,1.7c0.1-1,0.3-2,0.3-3.1c0.2-8-6.6-15.5-15-15.4c-6.5,0.1-12.1,3.8-14.3,9.9c-0.7,1.8-0.8,3.8-1.2,5.8
		c-0.2,0.1-0.5,0.1-0.7,0.1c-2.7,1-5.4,1.9-8.2,2.9c-0.5-1.2-1.1-2.4-1.5-3.7c-0.4-1.3-0.5-2.7-0.6-4.1c0-1.9,0-3.8,0.2-5.7
		c0.3-1.7,0.9-3.3,1.5-4.9c0.5-1.4,1.2-2.7,1.8-4c0.4-0.8,0.7-1.6,1.1-2.3l0,0c0.1-0.1,0.1-0.1,0.2-0.2l0,0c0.1-0.1,0.1-0.1,0.2-0.2
		l0,0c0.1-0.1,0.1-0.1,0.2-0.2c1.5-1.2,3-2.4,4.6-3.6c0.7-0.2,1.4-0.3,2-0.5c1.5-0.5,2.9-1.1,4.5-1.8c-0.1,0.3-0.2,0.4-0.2,0.5
		c-1.5,1.8-1.1,3.4,0.9,4.6c1.9,1.1,3.9,1.1,5.9,1.2c2.6,0.1,5.2,0,7.7-0.2c2.1-0.2,4.2-0.6,6.3-1.2c1.6-0.4,1.8-0.9,1.3-2.6
		c0-0.1,0.1-0.1,0.2-0.4c2.3,1.6,4.7,3.1,7,4.7C382.1,202.6,382.5,202.6,382.9,202.7z"/>
	<path class="st3" d="M180,91.1c-0.8,1.3-1.6,2.5-2.4,3.8c-4.4,8-4.2,16,0.2,23.8c3.2,5.6,8.1,9.5,13.4,12.8
		c6.4,4,13.3,6.8,20.6,8.9c-0.4,1-0.8,2-1.2,3.1c1,0.3,2,0.7,3.1,0.9c3.1,0.6,6.1,1.1,9.2,1.6c3.4,0.4,6.8,0.9,10.2,1
		c4.2,0.2,8.3,0,12.5,0c0.3,0,0.6,0,0.9,0c2.9-0.3,5.7-0.6,8.6-1c3.2-0.5,6.4-1,9.5-1.7c2.7-0.6,5.4-1.5,8-2.3c1-0.3,2-1,2.9-1.5
		c0.2,0.2,0.4,0.3,0.5,0.5c0.1,0.4,0.2,0.8,0.3,1.2c0.5,1.7,1.1,3.4,1.7,5.1c-0.4,0.3-0.8,0.7-1.2,0.9c-1,0.4-2.1,0.8-3.2,1.1
		c-2.8,0.9-5.6,1.9-8.5,2.4c-4.1,0.8-8.2,1.4-12.4,2c-3.2,0.4-6.4,0.8-9.6,0.8c-5,0-9.9-0.2-14.9-0.4c-2.3-0.1-4.6-0.3-6.9-0.7
		c-2.9-0.4-5.9-1.1-8.8-1.7c-1.3-0.3-2.6-0.7-3.9-1c0.5-2.1,1-4.1,1.5-6.1c0.2-0.7,0.1-0.9-0.6-1.1c-3.7-1.3-7.4-2.5-11-4.1
		c-7.5-3.3-14.5-7.5-19.9-13.8c-2.1-2.4-4-5.1-5-8.2c-0.7-2.1-1-4.2-1.4-6.4c-0.4-2.9-0.1-5.8,0.6-8.6c0.6-1.6,1.1-3.1,1.7-4.7
		C176.4,95.5,178.2,93.3,180,91.1z"/>
	<path class="st4" d="M176,196.1c4.5-5.8,10.3-9.9,16.7-13.4c1.4-0.8,2.9-1.4,4.4-2.1c1.8,1.6,3.6,3.2,5.4,4.9
		c1.6,1.5,3.2,3,4.8,4.5c-0.4,0.2-0.7,0.5-1.1,0.7c-5.7,3.2-10.8,6.9-13.5,13.1c-0.2,0-0.5-0.1-0.7,0c-2.7,0.5-5.4,1.1-8.1,1.5
		c-3.9,0.7-7.9,1.3-11.8,2c0.2-1.1,0.3-2.1,0.5-3.1c0.1-0.1,0.2-0.1,0.2-0.2c0.6-1.6,1.2-3.3,1.8-4.9
		C174.9,198.1,175.5,197.1,176,196.1z"/>
	<path class="st5" d="M259.5,161.3c-0.5,0.1-1,0.1-1.5,0.2c-3.9,0.4-7.8,1.1-11.7,1.2c-5.8,0.2-11.5-0.1-17.3-0.1
		c-0.2-0.1-0.5-0.2-0.7-0.2c-0.4,0-0.9,0.1-1.4,0c-1.9-0.2-3.9-0.5-5.8-0.8c-1.1-0.1-2.1-0.3-3.2-0.4c-0.2-0.2-0.4-0.6-0.7-0.6
		c-4.1-1.1-8.2-2.3-12.3-3.4c-3.9-1.1-7.6-2.8-11.1-4.8c-3.6-2.2-7.1-4.6-10.6-7.1c-2.9-2.1-5.1-4.9-7-8c-0.4-0.7-0.6-1.4-1-2.2
		c0.1,0.1,0.3,0.2,0.4,0.3c3.4,3.7,7.3,6.6,11.5,9.2c5.8,3.6,12,6.3,18.5,8.4c4.6,1.4,9.3,2.6,14.1,3.2c4.7,0.6,9.4,1.1,14.1,1.4
		c5.8,0.2,11.6,0.1,17.3-0.5c4.9-0.5,9.8-1.2,14.6-2.4c4.1-1.1,8.1-2.5,12.2-3.8c-1.2,1.8-2.2,3.7-3.6,5.4c-0.5,0.7-1.7,0.9-2.7,1.1
		c-3.8,1.1-7.7,2.1-11.5,3.2C260,160.8,259.8,161.1,259.5,161.3z"/>
	<path class="st6" d="M172.9,102.3c-0.7,2.8-1.1,5.7-0.6,8.6c0.3,2.2,0.7,4.3,1.4,6.4c1,3.1,2.9,5.7,5,8.2
		c5.4,6.3,12.4,10.5,19.9,13.8c3.6,1.6,7.3,2.8,11,4.1c0.7,0.2,0.8,0.5,0.6,1.1c-0.6,2-1,4.1-1.5,6.1c-0.3-0.1-0.6-0.1-0.8-0.2
		c-3.8-1.4-7.6-2.6-11.3-4.1c-4.6-1.9-8.9-4.4-12.9-7.3c-1.8-1.3-3.5-2.7-5.2-4.2c-2.5-2.2-4.6-4.7-6.2-7.5c-1.2-2.1-2-4.4-3-6.6
		c-0.1-0.3-0.2-0.5-0.2-0.8c0-2.5-0.2-5,0.1-7.4c0.3-2.7,1.1-5.4,1.6-8.1c0.3-0.3,0.7-0.6,1-0.9
		C172.1,103.2,172.5,102.8,172.9,102.3z"/>
	<path class="st7" d="M169.1,120.8c1,2.2,1.8,4.5,3,6.6c1.6,2.9,3.8,5.4,6.2,7.5c1.7,1.5,3.4,2.9,5.2,4.2c4,2.9,8.3,5.4,12.9,7.3
		c3.7,1.5,7.5,2.8,11.3,4.1c0.3,0.1,0.6,0.1,0.8,0.2c1.3,0.4,2.6,0.8,3.9,1c2.9,0.6,5.8,1.2,8.8,1.7c2.3,0.4,4.6,0.6,6.9,0.7
		c5,0.2,9.9,0.4,14.9,0.4c3.2,0,6.4-0.4,9.6-0.8c4.1-0.5,8.3-1.1,12.4-2c2.9-0.6,5.7-1.6,8.5-2.4c1.1-0.3,2.1-0.7,3.2-1.1
		c0.5-0.2,0.8-0.6,1.2-0.9c0.1,0.1,0.3,0.2,0.3,0.4c0,1-0.1,2.1-0.1,3.1v0.1c-0.1,0.1-0.1,0.1-0.2,0.1l0,0
		c-4.1,1.3-8.1,2.8-12.2,3.8c-4.8,1.2-9.6,1.9-14.6,2.4c-5.8,0.6-11.6,0.8-17.3,0.5c-4.7-0.2-9.4-0.8-14.1-1.4
		c-4.8-0.6-9.5-1.7-14.1-3.2c-6.5-2-12.6-4.8-18.5-8.4c-4.2-2.6-8.1-5.6-11.5-9.2c-0.1-0.1-0.3-0.2-0.4-0.3
		c-1.5-2.6-3.1-5.2-4.5-7.8C169.8,125.3,169.2,123.1,169.1,120.8z"/>
	<path class="st7" d="M338.5,227c2.7-1,5.4-1.9,8.2-2.9c0.2-0.1,0.5-0.1,0.7-0.1c0.1,0.7,0.1,1.4,0.3,2.1
		c2.1,8.8,9.5,14.1,18.5,12.2c6.1-1.3,10-5.4,11.4-11.6c2.8,0,5.5-0.4,8-1.7c0.2-0.1,0.4-0.1,0.6-0.2c-0.3,1-0.6,2.1-1,3.1
		c-0.7,1.5-1.4,2.9-2.2,4.3c-0.5,0.8-0.4,1.3,0.2,1.9c0.4,0.4,0.7,0.8,1,1.2c0.3,0.7,0.5,1.4,0.8,2.1c-0.1,0.1-0.2,0.1-0.3,0.2
		c-0.7-0.9-1.4-1.7-2.1-2.6c-0.5-0.6-0.8-0.7-1.4-0.1c-1.2,1.1-2.4,2.3-3.7,3.3c-3.4,2.4-7.1,4.1-11.2,4.8c-0.4,0-0.8,0-1.3,0
		c-2.2-0.1-4.5,0-6.7-0.2c-3.8-0.4-7.3-1.9-10.7-3.7c-0.1-0.1-0.2-0.1-0.3-0.2c-0.1,0-0.1,0-0.1,0c-0.1-0.2-0.2-0.4-0.4-0.6
		c-1.1-1-2.5-1.9-3.4-3.1c-1.8-2.5-3.4-5.2-5-7.9C338.3,227.1,338.4,227,338.5,227z"/>
	<path class="st7" d="M135,230c1.1,0,2.1,0,3.2,0c0.2,0,0.4,0.1,0.6,0.1c-0.4,0.8-0.8,1.7-1.3,2.4c-0.8,1.1-1.6,2.1-2.5,3.2
		c-0.3,0.4-0.7,0.8-1.1,1.1c-0.9,0.8-1.8,1.6-2.7,2.3c0,0-0.1,0.1-0.1,0c-0.1,0.1-0.2,0.1-0.3,0.2c-0.9,0.3-1.8,0.7-2.7,1
		c-4,1.3-8,2.7-12.3,2.4c-1-0.1-2.1,0-3.1,0c-6.2-1.1-11.3-4.2-15.5-8.9c-1.1,1.4-2,2.6-3,3.8c0.1-0.8,0.1-1.6,0.2-2.4
		c0.2-0.1,0.3-0.3,0.4-0.4c0.6-0.6,1.3-1.3,1.8-2c0.1-0.2-0.2-0.7-0.3-1c-1-2-2.1-4-3.1-5.9c2.6-0.4,5.2-0.9,7.8-1.3
		c0.7,5.4,3.2,9.6,8.2,12.2c6.4,3.4,14.8,1.6,19-4.3c0.8-1.2,1.5-2.4,2.2-3.6c1,0.2,2.1,0.4,3.1,0.6c0.1,0,0.3,0.1,0.4,0.1
		c0.2,0,0.4,0.1,0.6,0.1C134.7,229.9,134.9,229.9,135,230z"/>
	<path class="st8" d="M301.1,117.3c-0.1-0.4-0.2-0.9-0.2-1.3c0.1-1.2,0.3-2.4,0.3-3.6c0.1-2.4,0-4.8,0-7.2c0.1-3.8-0.9-7.3-2.9-10.6
		c-1.2-2-2.6-3.8-4.5-5.2c-1.2-0.9-2.2-2.2-3.4-3.1c-1.9-1.4-3.8-2.7-5.8-3.9c-1.2-0.8-2.5-1.5-3.8-2.2c-1.6-0.8-3.3-1.6-5-2.3
		c-1.5-0.6-2.9-1.2-4.4-1.7c-1.6-0.5-3.2-0.7-4.8-1.1c-2-0.5-4.1-0.8-6-1.5c-3.6-1.3-7.4-1.8-11.1-2c-3.8-0.2-7.6-0.2-11.4-0.2
		c-1.7,0-3.4-0.3-5.1,0.1c-1.1,0.2-2.3-0.2-3.5-0.4c-0.4-0.1-0.9-0.1-1.4-0.2c-0.3-0.1-0.5-0.3-0.7-0.4c2.4-0.3,4.9-0.8,7.3-0.8
		c5.1,0.1,10.3,0.4,15.4,0.8c7,0.6,13.9,1.7,20.6,4C281,78.1,290.4,83.3,298,91c4.8,4.8,8.7,10.3,10.4,17.2c1.2,4.9,1,9.8-0.4,14.7
		c-0.2,0.3-0.5,0.5-0.8,0.9c-1.3-1.6-2.5-3.2-3.8-4.8C302.7,118.3,301.9,117.8,301.1,117.3z"/>
	<path class="st8" d="M139.7,206c-0.3-0.3-0.5-0.6-0.8-0.8c-2.2-1.7-4.3-3.5-6.5-5.2c-1.2-0.9-2.5-1.5-3.8-2.3
		c-0.8,1.6-1.7,2.9-3.4,3.5c-1.2,0.4-2.5,0.8-3.8,0.8c-3.1,0-6.1-0.1-9.2-0.5c-2.9-0.3-5.3-1.8-6.8-4.6c-0.7,0.4-1.3,0.8-2,1.2
		c-1.4,0.8-2.8,1.5-4.3,2.3c-0.2,0.1-0.6,0-0.8,0c3.2-3.9,7.4-5.9,12.2-7.1c5.8-1.4,11.6-1.5,17,1.4c3.1,1.7,5.9,3.8,8.6,6
		c4.7,3.8,9.2,7.7,13.8,11.6c-0.1,0.7-0.1,1.3-0.2,2c-0.8,4.2-1.5,8.5-2.3,12.7c-0.2-0.8-0.6-1.6-0.5-2.3c0.6-4,1.3-7.9,1.9-11.9
		c0.1-0.4-0.2-1-0.5-1.2C145.4,209.7,142.6,207.9,139.7,206z"/>
	<path class="st2" d="M382.9,202.7c-0.4-0.1-0.8-0.1-1.1-0.3c-2.3-1.5-4.7-3.1-7-4.7c-0.1,0.3-0.2,0.3-0.2,0.4
		c0.5,1.6,0.4,2.1-1.3,2.6c-2,0.6-4.2,1-6.3,1.2c-2.6,0.2-5.1,0.3-7.7,0.2c-2-0.1-4.1-0.2-5.9-1.2c-2-1.1-2.4-2.9-0.9-4.6
		c0.1-0.1,0.1-0.2,0.2-0.5c-1.6,0.6-3,1.2-4.5,1.8c-0.6,0.2-1.3,0.3-2,0.5c3.2-2.8,6.9-4.5,10.9-5.3c8.1-1.4,15.5,0.5,22,5.7
		C380.6,199.6,381.6,201.2,382.9,202.7z"/>
	<path class="st2" d="M207.1,190c-1.6-1.5-3.2-3-4.8-4.5c-1.8-1.6-3.6-3.2-5.4-4.9c5.5-2.6,11.3-4.6,17.2-6.2c1.3-0.4,2.7-0.6,4-0.8
		c0,4,0,8.1,0,12.1c-0.2,0-0.4,0.1-0.6,0.1c-0.1,0-0.2,0.1-0.3,0.1C213.9,187.3,210.5,188.6,207.1,190z"/>
	<path class="st8" d="M408.3,264.9c-0.9-0.2-1.1-0.7-1.3-1.6c-0.5-3.7-2.1-7-4.6-9.8c-1.6-1.8-3.1-3.6-4.9-5.2
		c-2.1-1.9-4.3-3.7-6.6-5.5c-2.5-1.9-6.2-1-8.2,0.8c-1.8,1.6-3.5,3.2-5.5,4.6c-2.7,2-4,4.7-4.6,7.8c-0.2,0.9-0.3,1.8-0.5,2.7
		c0,0.2-0.4,0.4-0.5,0.6c-0.1-4,0.5-7.8,2.7-11.2c3.3-2.5,6.5-5.1,9.8-7.5c0.9-0.6,1.4-1.3,1.1-2.4c2.2-0.3,4.2,0.3,6.2,1.5
		c-0.4-2.1-0.7-2.6-2.3-3.2c-1.2-0.5-2.5-0.7-3.8-1c-0.3-0.1-0.6-0.2-0.8-0.3c0-0.3,0-0.6,0-0.9c2.3-0.8,4,0.2,5.6,1.6
		c5.8,5.1,11,10.6,15.8,16.6c1.5,1.9,2,4.2,2.1,6.5C408.2,260.9,408.2,262.9,408.3,264.9z"/>
	<path class="st9" d="M408.5,282.6c0.2-0.1,0.5-0.2,0.7-0.3c0.1,0,0.2,0.1,0.3,0.1c1.5,1.1,1.7,2.9,2.1,4.5c0.5,2.3,0.3,4.5,0,6.8
		c-1.2,0.4-2.4,0.8-3.5,1.4c-1.4,0.6-2.7,1.4-4.1,2c-1,0.4-2,0.7-3,1.1c-1.2-0.5-2.5-1.1-3-2.3c-0.7-1.6-1.2-3.4-1.6-5.1
		c-0.2-0.7,0.1-1.4,0.2-2.1c0.2-0.1,0.5-0.1,0.7-0.2C401.1,286.5,404.8,284.6,408.5,282.6z"/>
	<path class="st9" d="M384.5,235.1c0.3,0.1,0.6,0.2,0.8,0.3c1.2,0.3,2.5,0.5,3.8,1c1.6,0.6,1.9,1.2,2.3,3.2c-2-1.2-4-1.8-6.2-1.5
		c-0.1,0-0.2,0-0.3,0.1c-3,2.2-6,4.4-9,6.6c-0.7,0.5-1.4,1.2-2,1.8c-0.7,1.2-1.5,2.4-2,3.7c-1.2,3.2-1.9,6.5-2,9.9
		c-0.6-1.5-1.6-2.9-1.8-4.5c-0.5-2.9-0.6-5.9-0.9-8.9c-0.1-1.4,0-2.8-1.1-4c4.1-0.7,7.8-2.4,11.2-4.8c1.3-0.9,2.5-2.1,3.7-3.3
		c0.6-0.6,1-0.5,1.4,0.1c0.7,0.9,1.4,1.7,2.1,2.6c0.1-0.1,0.2-0.1,0.3-0.2c-0.3-0.7-0.5-1.4-0.8-2.1
		C384.2,235.2,384.4,235.1,384.5,235.1z"/>
	<path class="st10" d="M312.5,215.2c1.4-0.3,2.8-0.7,4.2-0.9c2.2-0.4,4.3-0.1,6.1,1.4c0.2,2.7,0.2,5.4,0.6,8.1
		c0.3,2,1.1,3.9,1.8,5.9c0.3,0.8,0.6,1.6,0.8,2.3c-1.1,0.6-2.2,1.2-3.2,1.9c-2.3,1.4-4.8,2-7.5,1.2c-1.5-0.4-2.8-1.2-4.2-1.9
		c0.3-0.8,0.6-1.6,0.9-2.3c0.6,0.4,1.2,0.8,1.9,1.1c2.8,1.4,5.5,0.7,7.1-1.4c1.8-2.2,1.5-5.3-0.2-7.4c-1.6-2-5-2.3-7.2-1
		c-0.3,0.2-0.6,0.2-1,0.4c-1.1-1.6-2.1-3.2-3.2-4.9c0-0.1,0-0.1,0-0.2c0.6-0.5,1.1-1,1.7-1.5C311.6,215.7,312,215.5,312.5,215.2z"/>
	<path class="st11" d="M218.2,185.7c0-4,0-8.1,0-12.1c0.1-0.2,0.1-0.4,0.2-0.6c0.6,0.3,1.2,0.6,1.9,0.9c0.1,0.1,0.2,0.2,0.2,0.4
		c0.1,2.4,0,4.8,0.3,7.2c0.5,4,0.3,8,0.1,12c-0.2,3.5-0.9,7,0.2,10.5c-1-1.1-2-2.3-3-3.4c0.2,2.1,1.4,3.8,3.1,5.2
		c2.4,2,5.1,3.2,8.1,4.2c3.5,1.1,7.1,1.3,10.8,1.2c4.8-0.1,9.3-1,13.5-3.3c2.4-1.3,4.4-2.9,5.5-5.5c0.2-0.5,0.2-1.2,0.2-1.8
		c0-0.1,0-0.2,0-0.2c0.1-0.6,0.3-1.1,0.5-1.7c0.7,1.2,0.4,2.6,0.2,3.9c-0.2,0.9-0.5,1.8-0.7,2.7c-0.4,0.2-0.9,0.4-1.2,0.7
		c-2.7,3-6.2,4.6-10,5.6c-2.4,0.6-4.8,1-7.3,1.1c-3.2,0-6.5,0-9.6-0.7c-4.5-1-8.9-2.7-12-6.6c-1.5-1.9-1.8-4-1.5-6.3
		c0.1-1,0.1-2,0.2-2.9c0-0.1-0.3-0.3-0.5-0.5c0.2-0.5,0.6-1,0.6-1.6c0-1.9-0.1-3.8-0.1-5.8C218,187.5,218.1,186.6,218.2,185.7z
		 M218,199.8c0,0,0.1,0,0.1,0c0-0.1,0-0.2,0-0.3c0,0-0.1,0-0.1,0C218,199.6,218,199.7,218,199.8z"/>
	<path class="st7" d="M404.1,297.1c1.4-0.7,2.7-1.4,4.1-2c1.1-0.5,2.3-0.9,3.5-1.4c-0.3,2.2-0.6,4.3-0.8,6.5c-0.3,2.8-0.7,5.6-1,8.5
		c-0.3,2.5-0.6,5.1-0.9,7.6c-0.3,2.3-0.6,4.6-0.9,6.9c-0.1-0.1-0.3-0.3-0.4-0.4c-1.5-2.3-2-5-2.5-7.6c-0.7-4.1-1.2-8.2-1.6-12.4
		C403.3,300.9,403,298.9,404.1,297.1z"/>
	<path class="st12" d="M338.5,227c-0.1,0.1-0.2,0.1-0.3,0.2c-0.4,0.1-0.9,0.2-1.3,0.4c-1.6,0.4-3.2,0.9-4.8,1.3
		c-0.1-0.4-0.3-0.7-0.4-1.1c-1.4-5.1-2.1-10.3-2.7-15.5c3.6-3,7.1-6,10.7-9c0.4-0.3,0.8-0.6,1.2-1c-0.4,0.8-0.8,1.5-1.1,2.3
		c-0.6,1.3-1.3,2.6-1.8,4c-0.6,1.6-1.2,3.2-1.5,4.9c-0.3,1.9-0.3,3.8-0.2,5.7c0,1.4,0.2,2.8,0.6,4.1
		C337.4,224.5,338,225.7,338.5,227z"/>
	<path class="st13" d="M205.2,75.6c0.2,0.2,0.3,0.5,0.6,0.7c4.4,2.6,8.9,5.1,13.3,7.7c0.3,0.2,0.6,0.4,1,0.7c-1.5,0.9-2.7,1.7-4,2.4
		c-4.8,2.8-9.7,5.6-14.5,8.4c-0.6,0.3-1,0.3-1.5,0c-5-2.9-10-5.8-15-8.7c0.5-0.3,1-0.7,1.5-1.1c0.2,0.1,0.3,0.1,0.5,0.2
		c4.2,2.4,8.4,4.9,12.6,7.3c0.3,0.2,0.9,0.3,1.2,0.1c2-1,3.9-2.2,5.8-3.3c0.3-0.2,0.5-0.4,0.9-0.7c-0.5-0.3-0.8-0.5-1.1-0.7
		c-2.6-1.5-5.3-3.1-7.9-4.6c-1.7-1-3.4-1.9-5.2-2.8c0.5-0.2,1-0.5,1.5-0.8c1,0.6,1.9,1.3,2.9,1.9c3.3,1.9,6.6,3.9,9.9,5.8
		c0.9,0.5,1.6,0.5,2.4,0c1.4-0.9,2.8-1.6,4.2-2.5c1.2-0.7,1.2-1,0.2-2c-0.1-0.1-0.2-0.1-0.4-0.2c-0.2-0.2-0.3-0.6-0.6-0.7
		c-3.2-1.8-6.4-3.6-9.6-5.4c-0.3-0.2-0.4-0.5-0.6-0.7C204,76.2,204.6,75.9,205.2,75.6z"/>
	<path class="st14" d="M69.4,281.6c0.1,0,0.1,0,0.2,0c0.2,0,0.4,0,0.5-0.1c0.4-0.4,0.8-0.8,1.3-1.2c0.4,0.2,0.8,0.4,1.2,0.5
		c2.8,1.4,5.6,2.8,8.3,4.2c1.2,0.6,2.5,0.6,3.8,0.1c2.3-0.8,4-2.5,5.6-4.3c2.6-3.2,5.2-6.5,7.7-9.7c1.9-2.4,3.8-4.9,5.7-7.4
		c0.9,0.1,1.9,0.2,2.8,0.3c0,0.1,0,0.1-0.1,0.2c-5.4,6.9-10.8,13.7-16.2,20.5c-0.2,0.3-0.6,0.6-1,0.7c-0.9,0.5-1.9,0.9-2.9,1.3
		c-1.2,0.6-2.3,1.2-3.4,1.8c-0.3,0-0.7,0-1,0c-2.4-1.3-4.8-2.6-7.2-3.8c-1.4-0.7-2.8-1.3-4.2-2C70,282.4,69.7,282,69.4,281.6z"/>
	<path class="st7" d="M214.1,83.4c0.1,0.1,0.3,0.1,0.4,0.2c1,1,1,1.2-0.2,2c-1.4,0.8-2.8,1.6-4.2,2.5c-0.9,0.5-1.6,0.5-2.4,0
		c-3.3-2-6.6-3.9-9.9-5.8c-1-0.6-1.9-1.2-2.9-1.9c1.4-0.8,2.7-1.5,4.1-2.2c0.9-0.5,1.9-0.8,2.9-1.2c0.9,0.4,1.8,0.8,2.7,1.3
		C207.7,79.9,210.9,81.7,214.1,83.4z"/>
	<path class="st3" d="M303.5,118.8c1.3,1.6,2.5,3.2,3.8,4.8c0.3-0.3,0.5-0.6,0.8-0.9c-0.2,0.7-0.4,1.5-0.5,2.2
		c-0.6-0.6-0.8,0.2-0.9,0.4c-0.3,0.5-0.4,1.2-0.8,1.7c-1.9,2.8-4,5.5-6.5,7.8c-0.5,0.5-1.2,0.7-1.8,1.1c-0.8-2.1-1.7-4.1-2.5-6.2
		c-0.1-0.1-0.1-0.3-0.2-0.4c0.6-0.4,1.2-0.8,1.8-1.3C299.5,125.5,301.8,122.4,303.5,118.8z"/>
	<path class="st15" d="M71.4,280.3c-0.4,0.4-0.8,0.8-1.3,1.2c-0.1,0.1-0.3,0.1-0.5,0.1c0.2-0.9,0.4-1.8,0.4-2.6
		c0.2-5.2,0.3-10.3,0.4-15.5c0-0.1,0-0.2,0.1-0.3c0.3-1,0.7-2,1-2.9c0.9-2.4,1.9-4.8,3.9-6.7c2.1-1,3.8-2.3,5.4-4
		c2.4-2.6,4.9-5.1,7.5-7.6c1.5-1.4,3.7-1.2,5.4,0.1c0,0.1,0,0.2,0,0.3c-1.6-0.6-2.8,0.2-3.8,1.1c-4.1,3.7-8.2,7.5-12.3,11.3
		c-2,1.9-3.4,4.2-3.9,7c-0.7,3.3-1.4,6.6-1.8,9.9C71.4,274.5,71.5,277.4,71.4,280.3z"/>
	<path class="st12" d="M325.1,229.6c-0.6-2-1.4-3.9-1.8-5.9c-0.4-2.7-0.4-5.4-0.6-8.1c0.7-0.3,1.4-0.6,2.1-0.9c1-0.5,2-1.1,3-1.6
		c0.1,1.1,0.1,2.2,0.3,3.3c0.8,4.3,1.7,8.5,2.5,12.8C328.9,229.3,327,229.4,325.1,229.6z"/>
	<path class="st5" d="M302.6,134.9c-0.6,1.1-1.2,2.4-2,3.4c-2.7,3.9-6,7.3-10,9.9c-2.1,1.4-4.4,2.7-6.6,3.9c-1.9,1.1-3.9,2-5.9,2.9
		c-0.4,0.2-0.8,0.3-1.4,0.3c0.4-0.6,0.7-1.2,1.1-1.8c0.6-1,1.3-1.9,1.9-2.9c0.1-0.1,0-0.3,0.1-0.5c0.3-0.2,0.6-0.4,0.9-0.6
		c2.9-1.4,5.8-2.8,8.5-4.3c2.2-1.2,4.2-2.8,6.3-4.2c0.1-0.1,0.1-0.1,0.2-0.2c0.1-0.1,0.3-0.2,0.4-0.3c0.5-0.4,1-0.8,1.5-1.2
		c0.2-0.1,0.4-0.2,0.5-0.3C299.7,137.8,301.1,136.4,302.6,134.9z"/>
	<path class="st16" d="M151.1,213c1.7,1,3.4,2,5.2,3c-0.2,2.8-0.5,5.5-0.7,8.3c-0.8,1.3-1.7,2.7-2.5,4c-1.5-0.2-3.1-0.4-4.6-0.5
		c0.7-3.6,1.4-7.2,2.1-10.8C150.8,215.7,150.9,214.4,151.1,213z"/>
	<path class="st5" d="M236.9,423.6c-0.2-2.6-0.4-5.1-0.6-7.7c-0.4-4.8-0.8-9.7-1.2-14.5c-0.2-3-0.4-6-0.7-9
		c-0.2-2.1-0.4-4.3-0.6-6.4c-0.1-0.8-0.4-1.6-0.6-2.3c1.3-0.3,0.4,1.2,1,1.4c0.6-0.5,1.1-1,1.7-1.4c-0.1,0.7-0.2,1.3-0.2,2
		c0,3.2,0.1,6.4,0.2,9.6c0,1.3,0,2.5,0.1,3.8c0.3,3.6,0.5,7.3,1,10.9c0.4,3,1.1,5.9,1.8,8.8c0.2,0.8,0.7,1.6,1.1,2.4
		c0.1,0,0.2,0,0.4-0.1c0.4-0.9,0.8-1.8,1.2-2.7c0.1,0.2,0.2,0.3,0.2,0.5c-0.1,1.1-0.2,2.1-0.2,3.2c-0.3,0.9-0.6,1.9-1.1,2.7
		c-0.2,0.4-1,0.7-1.3,0.5C238.1,425,236.9,424.9,236.9,423.6z"/>
	<path class="st5" d="M74.1,326.5c-0.3,0.9-0.5,1.8-0.8,2.7c-1.4-0.1-1.8-0.3-1.9-1.7c-0.3-2.1-0.5-4.2-0.7-6.3
		c-0.3-2.9-0.7-5.9-1-8.8c-0.2-2.1-0.4-4.2-0.7-6.3c-0.3-3-0.7-5.9-1-8.9c-0.1-1.2-0.2-2.4-0.3-3.6c0.6,0.2,1.1,0.4,1.7,0.6
		c0.1,0.1,0.1,0.2,0.2,0.4c0.1,5.8,0.4,11.5,1.3,17.1c0.5,2.8,1.1,5.5,2.4,8c0.2,0.4,0.8,0.6,1.1,0.9
		C74.4,322.7,74.2,324.6,74.1,326.5z"/>
	<path class="st0" d="M193.3,81.1c1.7,0.9,3.5,1.8,5.2,2.8c2.7,1.5,5.3,3.1,7.9,4.6c0.3,0.2,0.6,0.4,1.1,0.7
		c-0.4,0.3-0.6,0.5-0.9,0.7c-1.9,1.1-3.8,2.2-5.8,3.3c-0.3,0.2-0.9,0.1-1.2-0.1c-4.2-2.4-8.4-4.8-12.6-7.3c-0.1-0.1-0.3-0.2-0.5-0.2
		C188.8,84.1,191.1,82.6,193.3,81.1z M202.8,89.6c-0.4-0.6-0.8-1.4-1.4-2c-1-1-2.2-1.8-3.3-2.7c-2-1.8-4.3-2-6.8-1.9
		c-0.7,0.1-1.4,1-1.1,1.6c0.4,0.8,0.9,1.6,1.5,2.1c1.8,1.2,3.7,2.4,5.7,3.4C199.1,90.8,200.9,91.9,202.8,89.6z"/>
	<path class="st10" d="M155.6,224.3c0.2-2.8,0.5-5.5,0.7-8.3c1.1-0.4,2.2-0.8,3.2-1.2c1.9-0.8,3.8-0.9,5.7-0.3c0.4,0.1,0.8,0,1.2,0
		c0.4,0.2,0.9,0.5,1.4,0.7c0.2,0.1,0.4-0.1,0.7-0.1c0.2,0.2,0.3,0.4,0.5,0.7c-1.6,1-3.3,2-5,3c-0.5,0.3-1.1,0.7-1.6,1
		c-0.4,0.3-0.8,0.6-1.1,0.8c-0.2,0.1-0.5,0.1-0.7,0.2C158.9,222,157.2,223.2,155.6,224.3z"/>
	<path class="st5" d="M404.1,297.1c-1.1,1.8-0.7,3.8-0.5,5.7c0.4,4.1,1,8.2,1.6,12.4c0.4,2.6,1,5.3,2.5,7.6c0.1,0.2,0.3,0.3,0.4,0.4
		c-0.2,1.7-0.3,3.5-0.7,5.2c-0.1,0.4-1,0.7-1.5,1c-0.2-0.6-0.5-1.1-0.7-1.7c0-0.3,0.2-0.6,0.1-0.9c-0.5-3.4-0.9-6.8-1.4-10.2
		c-0.3-2.5-0.7-4.9-1-7.4c-0.3-2.1-0.6-4.3-0.9-6.5c-0.2-1.5-0.6-3.1-0.8-4.6C402.1,297.8,403.1,297.5,404.1,297.1z"/>
	<path class="st0" d="M71.6,260.2c-0.3,1-0.7,2-1,2.9c0.3-2.5,0.4-5,0.8-7.5c0.5-2.9,2.5-5.1,4.5-7.1c4.5-4.5,9.1-9,13.6-13.5
		c1.1-1.1,4.4-1.6,5.4-0.1c-0.2,0.1-0.3,0.3-0.4,0.4c-1.1,0.1-2.3,0.1-3.2,0.4c-1.2,0.4-2.2,1.3-3.2,1.9c-0.2,0.1-0.3,0.1-0.5,0.2
		c-2.2,2.2-4.5,4.3-6.6,6.5c-1.8,1.9-3.3,4.1-5.2,5.9C72.8,253.1,71.7,256.4,71.6,260.2z"/>
	<path class="st17" d="M330.7,229.1c-0.9-4.2-1.7-8.5-2.5-12.8c-0.2-1.1-0.2-2.2-0.3-3.3c0.4-0.3,0.8-0.6,1.2-0.9
		c0.5,5.2,1.2,10.4,2.7,15.5c0.1,0.4,0.2,0.7,0.4,1.1c0.5,1.7,1,3.4,1.5,5.1c-0.6-0.1-1.1-0.2-1.7-0.4
		C331.5,232,331.1,230.6,330.7,229.1z"/>
	<path class="st17" d="M151.1,213c-0.2,1.4-0.3,2.7-0.6,4.1c-0.7,3.6-1.4,7.2-2.1,10.8c-0.5,1.6-1,3.3-1.5,4.9
		c-0.1,0.2,0.1,0.5,0.2,0.8c-0.6,0.2-1.3,0.3-2,0.5c0.1-0.4,0.2-0.8,0.3-1.2c0.5-1.6,1-3.2,1.5-4.8c0.1-0.4,0.3-0.7,0.4-1.1
		c0.8-4.2,1.5-8.5,2.3-12.7c0.1-0.7,0.2-1.3,0.2-2C150.3,212.5,150.7,212.8,151.1,213z"/>
	<path class="st18" d="M220.3,173.9c-0.6-0.3-1.2-0.6-1.9-0.9c-0.1-3.9-0.3-7.8-0.4-11.7c1.1,0.1,2.1,0.3,3.2,0.4
		c-0.2,3.3-0.4,6.6-0.6,9.9C220.4,172.4,220.4,173.1,220.3,173.9z"/>
	<path class="st7" d="M302.6,134.9c-1.4,1.4-2.9,2.8-4.3,4.2c-0.1,0.1-0.3,0.2-0.5,0.3c-0.1-1.1-0.1-2.3-0.2-3.4
		c0.6-0.4,1.3-0.6,1.8-1.1c2.5-2.3,4.6-4.9,6.5-7.8c0.3-0.5,0.4-1.2,0.8-1.7c0.2-0.3,0.3-1,0.9-0.4c-1,2.4-2,4.7-3.2,7.1
		C303.9,133.1,303.2,134,302.6,134.9z"/>
	<path class="st16" d="M302.6,207.7c0.3-0.1,0.7-0.3,1-0.3c1,0,2.1,0,3.2,0c-0.4-3.6-1.5-6.9-3.4-9.8c-1.1-1.6-2.2-3.1-3.3-4.7
		c2.5,2,4.5,4.3,5.8,7.2c0.5,1.1,1.2,2,1.9,3c0.1,0.1,0.2,0.2,0.2,0.3l0-0.1c0.1,0.1,0.1,0.2,0.2,0.2c0,0.1,0.1,0.1,0,0.2
		c0.1,0.7,0.3,1.4,0.4,2.1c0.3,2.1,0.5,4.2,0.8,6.3c-0.7-1.2-1.3-2.5-2-3.8c-0.1-0.7-0.5-1-1.2-1
		C304.9,207.7,303.8,207.7,302.6,207.7z"/>
	<path class="st16" d="M168.4,215.2c-0.2,0-0.5,0.1-0.7,0.1c-0.5-0.2-0.9-0.4-1.4-0.7c0.6-4.5,1.8-8.7,4.9-12.2
		c-0.1,0.5-0.3,1.1-0.4,1.6c-0.2,0.7-0.3,1.5-0.5,2.2c-0.3,1.2-0.6,2.3-0.8,3.5C169.2,211.5,169.6,213.5,168.4,215.2z"/>
	<path class="st19" d="M309.3,212.4c-0.2-2.1-0.5-4.2-0.8-6.3c-0.1-0.7-0.3-1.4-0.4-2.1c2,2.4,3.2,5.1,3.8,8.1
		c0.2,1.1,0.4,2.1,0.5,3.2c-0.5,0.3-0.9,0.5-1.4,0.8C310.5,214.8,309.9,213.6,309.3,212.4z"/>
	<path class="st18" d="M280.8,149.7c-0.3,0.2-0.6,0.4-0.9,0.6c-0.6,0.1-1.1,0.3-1.7,0.4c0-1,0.1-2.1,0.1-3.1c0-0.1-0.2-0.2-0.3-0.4
		c-0.5-1.7-1.1-3.4-1.6-5.1c-0.1-0.4-0.2-0.8-0.3-1.2c0.6-0.2,1.1-0.4,1.7-0.6c0.2,0.6,0.4,1.2,0.7,1.9c0.6,1.5,1.2,3,1.9,4.5
		c0,0.7,0,1.5,0,2.2C280.4,149.2,280.6,149.4,280.8,149.7z"/>
	<path class="st6" d="M69.4,294.4c-0.6-0.2-1.1-0.4-1.7-0.6c-0.1-0.2-0.2-0.5-0.3-0.6c-2.4-3.8-1.6-8.6,2-11.4
		c0.3,0.4,0.6,0.8,0.9,1.2c-0.3,0.2-0.6,0.3-0.9,0.6c-2.4,2-2.6,4.6-1.8,7.3C68,292,68.8,293.1,69.4,294.4z"/>
	<path class="st15" d="M170.3,206.1c0.2-0.7,0.3-1.5,0.5-2.2c0.1-0.5,0.3-1.1,0.4-1.6c1.6-2.1,3.1-4.2,4.7-6.2c-0.5,1-1,2-1.4,3
		c-0.6,1.6-1.2,3.2-1.8,4.9c0,0.1-0.1,0.1-0.2,0.2c-0.2,0.1-0.4,0.1-0.5,0.3C171.4,205,170.9,205.6,170.3,206.1z"/>
	<path class="st4" d="M214.1,83.4c-3.2-1.7-6.4-3.4-9.6-5.2c-0.9-0.5-1.8-0.9-2.7-1.3c0.5-0.1,1-0.3,1.5-0.4
		c0.2,0.2,0.4,0.6,0.6,0.7c3.2,1.8,6.4,3.6,9.6,5.4C213.8,82.8,213.9,83.1,214.1,83.4z"/>
	<path class="st18" d="M172.9,102.3c-0.4,0.4-0.9,0.8-1.3,1.3c-0.3,0.3-0.6,0.6-1,0.9c0.9-2.5,2.1-4.9,4-6.8
		C174.1,99.2,173.5,100.8,172.9,102.3z"/>
	<path class="st20" d="M241.3,422.1c0.1-1.1,0.2-2.1,0.2-3.2c0.1,0.5,0.2,1,0.4,1.5C241.7,421,241.5,421.5,241.3,422.1z"/>
	<path class="st7" d="M409.5,282.4c-0.1,0-0.2-0.1-0.3-0.1c0-0.1,0.1-0.2,0.1-0.3C409.4,282.2,409.5,282.3,409.5,282.4z"/>
	<path class="st16" d="M300.1,192.9c0-0.1-0.1-0.1-0.2-0.2C300,192.8,300,192.8,300.1,192.9z"/>
	<path class="st16" d="M299.9,192.7c-0.1-0.1-0.1-0.1-0.2-0.2C299.8,192.5,299.8,192.6,299.9,192.7z"/>
	<path class="st8" d="M227.1,70.5c-0.1,0-0.1,0-0.2,0C226.9,70.5,227,70.5,227.1,70.5z"/>
	<path class="st12" d="M341.6,201.6c-0.1,0.1-0.1,0.1-0.2,0.2C341.5,201.8,341.6,201.7,341.6,201.6z"/>
	<path class="st12" d="M341.4,201.8c-0.1,0.1-0.1,0.1-0.2,0.2C341.3,202,341.4,201.9,341.4,201.8z"/>
	<path class="st19" d="M308,203.5c-0.1-0.1-0.2-0.2-0.2-0.3C307.8,203.3,307.9,203.4,308,203.5z"/>
	<path class="st19" d="M308.1,203.7c-0.1-0.1-0.1-0.2-0.2-0.2C308,203.6,308,203.6,308.1,203.7z"/>
	<path class="st12" d="M341.2,202c-0.1,0.1-0.1,0.1-0.2,0.2C341.1,202.2,341.1,202.1,341.2,202z"/>
	<path class="st5" d="M278,150.9c0.1-0.1,0.1-0.1,0.2-0.1C278.2,150.8,278.1,150.9,278,150.9z"/>
	<path class="st7" d="M252.5,316.6c0.1,0.1,0.1,0.3,0.2,0.4c0.1,0.5,0.2,1.1,0.2,1.7c-0.7-0.3-1.4-0.6-2.1-1c-1-0.3-2-0.6-3-1
		c-0.3-0.1-0.6-0.1-0.9-0.2c-0.1-0.1-0.3-0.1-0.4-0.2c0-0.7,0-1.4,0-2.2c-1.5,0.3-2.8,0.6-4.1,0.9c-0.4,0-0.8,0-1.2,0.1
		c-0.1,0-0.3,0.1-0.5,0.1c-0.6,0-1.1,0-1.7,0c-0.5-0.5-0.9-1.2-1.5-1.5c-3.1-1.5-6.3-2.6-9.1-4.7c-3-2.3-6.5-4-8.8-7.1
		c-0.3-0.3-0.7-0.5-1.1-0.8c0.1-3.2,0.2-6.5,0.3-9.7c0.3-0.1,0.7-0.2,1-0.3c6.9-2.8,14.1-3.4,21.4-2c5.7,1.1,11,3.6,16.4,5.6
		c0.1,0,0.3,0.1,0.4,0.1c0.2,0,0.4,0.1,0.7,0.1c0.1,0.2,0.2,0.4,0.2,0.6c0.2,2.9,0.3,5.7,0.5,8.6c-0.3,0.5-0.5,1.2-0.9,1.6
		c-1.2,1.3-2.5,2.5-3.9,3.6c-1.1,0.9-2.4,1.7-3.7,2.5c-0.9,0.5-1.7,1-2.8,1.7C249.8,314.7,251.2,315.7,252.5,316.6z"/>
	<path class="st7" d="M241.3,418.4c-0.4,0.9-0.8,1.8-1.2,2.7c-0.1,0-0.2,0-0.4,0.1c-0.4-0.8-0.9-1.5-1.1-2.4
		c-0.7-2.9-1.4-5.8-1.8-8.8c-0.5-3.6-0.7-7.3-1-10.9c-0.1-1.3-0.1-2.5-0.1-3.8c-0.1-3.2-0.1-6.4-0.2-9.6c0-0.7,0.1-1.3,0.2-2
		c3.6-1.5,5.7-1,8,1.9c-0.1,1.4-0.1,2.9-0.2,4.3c-0.1,1.8-0.3,3.6-0.4,5.5c-0.2,2.7-0.4,5.4-0.6,8.1c0,0.5,0,1,0,1.5
		c-0.1,0.4-0.2,0.7-0.2,1.1c-0.2,1.9-0.4,3.8-0.5,5.6c-0.2,2.2-0.4,4.5-0.5,6.7C241.3,418.3,241.3,418.4,241.3,418.4z"/>
	<path class="st4" d="M247.9,316.8c1,0.3,2,0.6,3,1c0.2,0.5,0.4,1.1,0.6,1.5c0.8,1.2,1.6,2.5,1.5,4.1c-0.2,3.4-0.4,6.9-0.7,10.3
		c-0.1,1.1-0.3,2.1-0.3,3.2c-0.1,2.1-0.1,4.2-0.1,6.3c0,1.1-0.2,2.2-0.3,3.4c0,0.5,0,1.1,0.1,1.7c0.1,0.7,0.2,1.4,0.2,2
		c0,1.4,0,2.7,0,4.1c0,0.4-0.1,0.7-0.1,1.1c-0.6,1.6-0.7,3.2-0.4,4.9c0,0.2,0,0.4-0.1,0.6c-0.9,1.2-1.7,2.5-2.6,3.7
		c-0.8,1.1-1.6,2.2-2.4,3.3c0-0.6,0.1-1.2,0.1-1.9c0.2-4.2,0.5-8.3,0.6-12.5c0.1-3.5,0.1-7,0.2-10.6c0.2-5.3-0.3-10.5,0.3-15.8
		C248,323.7,247.8,320.2,247.9,316.8z"/>
	<path class="st9" d="M306.9,240.7c-0.7,1.4-1.1,2.9-2,4.1c-3.8,5-8.6,9.1-13.9,12.3c-3.6,2.2-7.5,3.9-11.4,5.8
		c-2.4,1.1-4.9,2-7.3,3c-0.3,0.1-0.5,0.1-0.8,0.2c-0.7,0.2-1.3,0.5-2,0.6c-3.1,0.7-6.2,1.3-9.3,1.9c-1.2,0.2-2.3,0.5-3.5,0.7
		c-0.9-1.6-1.9-3.1-2.9-4.7c2-0.3,4-0.5,6-0.9c4.5-0.9,8.9-1.7,13.3-2.9c4.1-1.2,8.1-2.8,12-4.4c6.7-2.8,12.7-6.7,18-11.7
		C304.4,243.4,305.6,242,306.9,240.7z"/>
	<path class="st21" d="M253.8,264.6c0.9,1.6,1.9,3.1,2.8,4.7c0.5,0.9,0.9,1.8,1.4,2.8c-0.2-0.1-0.4-0.1-0.5-0.3c-2.1-2-4.4-3.7-7-5
		c-0.3-0.2-0.6-0.5-0.8-0.8c-0.9-1.7-1.8-3.4-2.8-5.1c-0.4-0.7-1-1.3-1.5-2c-0.1,0.1-0.2,0.1-0.3,0.2c0.8,2.1,1.5,4.2,2.3,6.3
		c-0.2,0-0.3,0-0.4,0c-2.6-0.9-5.4-1.3-8.2-1.3c-2,0-4,0.5-6,0.9c-4.3,0.9-8,3-11.2,6c-0.4,0.3-0.8,0.6-1.1,0.9
		c0.4-0.9,0.7-1.8,1.1-2.7c1-1.6,1.9-3.2,2.9-4.8c0.8-1.3,1.6-2.7,2.4-4c0.1-0.1,0.3-0.3,0.4-0.4c0.2,0,0.4,0.2,0.6,0.1
		c0.9-0.3,1.7-0.9,2.5-1c4-0.6,7.9-1.4,12-1c2.2,0.2,4.3,0.5,6.4,1.3c0.8,0.3,1.6,0.6,2.4,0.9C252.1,261.8,253,263.2,253.8,264.6z"
		/>
	<path class="st22" d="M243.9,385.6c-2.4-2.9-4.4-3.3-8-1.9c-0.6,0.5-1.1,0.9-1.7,1.4c-0.6-0.2,0.3-1.7-1-1.4
		c-0.1-2.3-0.2-4.5-0.3-6.8c0.1-1.3,0.2-2.5,0.3-3.8c0.8-1.5,2-2.6,3.8-2.8c3.2-0.4,6.3-0.2,8.3,3c0.1,0.6,0.1,1.3,0.2,2
		c-0.1-0.1-0.3-0.2-0.4-0.4c-0.6-1.5-1.1-1.8-2.7-1.7c-0.6,0-0.9,0.3-0.9,0.9c-0.1,1.8,0.2,3.5,1.2,5.1c0.8,1.2,1.7,1.3,2.6,0.2
		c-0.1,1.5-0.1,3-0.2,4.4c0,0.6-0.2,1.1-0.3,1.7C244.4,385.5,244.1,385.5,243.9,385.6z"/>
	<path class="st8" d="M220.5,271.9c0.4-0.3,0.8-0.5,1.1-0.9c3.2-3,6.9-5.1,11.2-6c2-0.4,4-0.9,6-0.9c2.8,0,5.5,0.4,8.2,1.3
		c0.1,0,0.2,0,0.4,0c-0.8-2.1-1.5-4.2-2.3-6.3c0.1-0.1,0.2-0.1,0.3-0.2c0.5,0.7,1.1,1.3,1.5,2c1,1.7,1.8,3.4,2.8,5.1
		c0.2,0.3,0.5,0.6,0.8,0.8c2.6,1.3,4.9,3,7,5c0.1,0.1,0.4,0.2,0.5,0.3c0.6,0.9,1.2,1.8,1.8,2.8c-0.1,0.4-0.1,0.9-0.2,1.3
		c-1-0.9-1.9-1.9-2.9-2.8c-4.2-4-9.2-6.4-15-7c-4.8-0.4-9.4,0.3-13.8,2.4c-3.6,1.7-6.6,4.2-8.9,7.3c-0.2-0.2-0.3-0.5-0.5-0.7
		c0-0.4,0-0.7,0-1.1C219.2,273.6,219.8,272.7,220.5,271.9z"/>
	<path class="st16" d="M264.2,292.5c-0.3,1.3-0.6,2.5-0.9,3.8c-1-0.2-2.1-0.5-3.1-0.7c0-5.1,0.1-10.2,0.1-15.3
		c0.2,0.2,0.5,0.5,0.8,0.7c0.9,0.5,1.3,1.2,1.5,2.1c0.2,1.5,0.4,3,0.6,4.5C263.4,289.3,263.4,291,264.2,292.5z"/>
	<path class="st15" d="M245.3,375.3c-0.1-0.6-0.1-1.3-0.2-2c0.1-0.5,0.3-1.1,0.5-1.6c0.2-1.3,0.5-2.6,0.7-3.9
		c0.8-1.1,1.6-2.2,2.4-3.3c0.9-1.2,1.7-2.5,2.6-3.7c-0.2,1.1-0.4,2.1-0.7,3.2c-0.6,2.5-1.2,5-2.1,7.4c-0.4,1.3-1.4,2.5-2.1,3.6
		c-0.3,0.5-0.7,1-1.1,1.5C245.3,376.2,245.3,375.8,245.3,375.3z"/>
	<path class="st22" d="M260.4,280.3c0,5.1-0.1,10.2-0.1,15.3c0.1,2.1,0.3,4.1,0.4,6.2c-0.2,1-0.5,2-0.7,3c-0.1-0.1-0.2-0.3-0.4-0.5
		c-0.2-2.9-0.3-5.7-0.5-8.6c0-0.2-0.1-0.4-0.2-0.6c0-0.3,0.1-0.7,0.1-1c-0.2-6,0-12,0.6-17.9c0.1-0.4,0.1-0.9,0.2-1.3
		c0.3,0.9,0.5,1.8,0.8,2.7C260.5,278.5,260.4,279.4,260.4,280.3z"/>
	<path class="st0" d="M251.8,354.4c0-1.4,0-2.7,0-4.1c0-0.7-0.1-1.4-0.2-2c-0.1-0.5-0.1-1.1-0.1-1.7c0.1-1.1,0.3-2.2,0.3-3.4
		c0.1-2.1,0.1-4.2,0.1-6.3c0-1.1,0.2-2.1,0.3-3.2c0.2-3.4,0.4-6.9,0.7-10.3c0.1-1.6-0.6-2.8-1.5-4.1c-0.3-0.4-0.4-1-0.6-1.5
		c0.7,0.3,1.4,0.6,2.1,1c0.9,0.5,0.5,1.4,0.6,2.1c-0.2,2.8-0.3,5.6-0.5,8.5C252.7,337.6,252.3,346,251.8,354.4z"/>
	<path class="st23" d="M245.3,375.3c0,0.5,0,0.9,0.1,1.4c-0.1,0.9-0.1,1.8-0.2,2.8c-0.9,1.2-1.8,1.1-2.6-0.2c-1-1.6-1.3-3.3-1.2-5.1
		c0-0.6,0.3-0.9,0.9-0.9c1.6-0.1,2.1,0.2,2.7,1.7C244.9,375.1,245.1,375.2,245.3,375.3z"/>
	<path class="st19" d="M260.4,280.3c0.1-0.9,0.2-1.9,0.2-2.8c0.9,1.8,2,3.6,2.7,5.5c1.1,2.8,1.2,5.8,1.1,8.8c0,0.2-0.1,0.4-0.2,0.6
		c-0.9-1.5-0.9-3.2-1.1-4.9c-0.2-1.5-0.4-3-0.6-4.5c-0.1-1-0.5-1.7-1.5-2.1C260.8,280.9,260.6,280.6,260.4,280.3z"/>
	<path class="st20" d="M259.6,304.3c0.1,0.1,0.2,0.3,0.4,0.5c0,0.2,0.1,0.4,0,0.5c-2.6,3.2-5.4,6-9.1,7.9c-0.4,0.2-0.8,0.2-1.2,0.4
		c0,0.1,0,0.2,0,0.3c0.4,0.2,0.7,0.3,1,0.5c0.9,0.6,1.8,1.2,1.9,2.4c-1.4-1-2.7-1.9-4.2-3c1.1-0.6,2-1.1,2.8-1.7
		c1.2-0.8,2.6-1.5,3.7-2.5c1.4-1.1,2.6-2.4,3.9-3.6C259.1,305.5,259.3,304.8,259.6,304.3z"/>
	<path class="st7" d="M260.6,301.8c-0.1-2.1-0.3-4.1-0.4-6.2c1,0.2,2.1,0.5,3.1,0.7c0.1,1.6-1,2.6-1.6,3.9
		C261.5,300.8,261,301.3,260.6,301.8z"/>
	<path class="st20" d="M243.9,385.6c0.3,0,0.5,0,0.8,0c-0.1,1.7-0.3,3.3-0.4,5c-0.2,2-0.4,4-0.6,6c-0.2,2.1-0.3,4.1-0.5,6.2
		c0,0.3-0.4,0.5-0.6,0.7c0.2-2.7,0.4-5.4,0.6-8.1c0.1-1.8,0.3-3.6,0.4-5.5C243.7,388.4,243.8,387,243.9,385.6z"/>
	<path class="st20" d="M241.3,418.3c0.2-2.2,0.4-4.5,0.5-6.7c0.2-1.9,0.3-3.8,0.5-5.6c0-0.4,0.1-0.7,0.2-1.1
		c0.1,0.7,0.2,1.4,0.2,2.1c-0.2,3.6-0.5,7.1-0.9,10.7C241.9,417.9,241.5,418,241.3,418.3z"/>
	<path class="st0" d="M251.3,360.3c-0.3-1.7-0.1-3.3,0.4-4.9c0,1.4-0.1,2.8-0.1,4.1C251.6,359.9,251.4,360.1,251.3,360.3z"/>
	<path class="st20" d="M253.6,320.9c-0.1-0.7,0.2-1.6-0.6-2.1c-0.1-0.6-0.2-1.1-0.2-1.7c0.2,0,0.6,0,0.7,0.2
		c0.4,1.1,0.9,2.2,0.5,3.5C253.9,320.8,253.7,320.8,253.6,320.9z"/>
	<path class="st17" d="M208,93.6c4.6-3.4,9.8-5.7,15.4-7.2c7.4-1.9,14.9-2.1,22.4-1.4c7.4,0.7,14.4,2.8,20.8,6.6
		c2.8,1.7,5.3,3.7,7.3,6.4c4.2,5.7,3.9,13-0.9,18.3c-3.6,4.1-8.3,6.6-13.3,8.6c-1.1,0.5-2.2,0.8-3.4,1.3c-0.3,0.1-0.7,0.1-1,0.2
		c-3.9,1.1-7.9,1.8-11.9,2c-7.1,0.4-14.1,0.1-20.9-1.9c-6.5-1.9-12.5-4.6-17.4-9.5c-5.8-5.8-5.8-14.7-0.1-20.5
		C206,95.5,207,94.6,208,93.6z M225.2,87.6c-0.2,0-0.4,0-0.6,0.1c-4.1,1-8,2.5-11.6,4.7c-3.5,2.1-6.6,4.6-8.6,8.3
		c-1.1,2.1-1.9,4.4-1.6,6.8c0.1,0.7,0.4,1.5,0.6,2.2c0.2,0.9,0.4,1.8,0.7,2.6c1.7,3.6,4.4,6.2,7.7,8.1c2.6,1.6,5.4,2.9,8.2,4
		c2.5,1,5.1,1.4,7.7,2.1c2.1,0.3,4.2,0.7,6.4,0.8c6.2,0.4,12.3,0.1,18.3-1.3c5.9-1.4,11.5-3.7,16.2-7.7c1.2-1,2.1-2.2,3.1-3.4
		c0.2-0.2,0.5-0.4,0.7-0.7c1.4-2.2,2.2-4.6,2.3-7.2c0.1-5-2.2-8.7-5.9-11.8c-5.2-4.4-11.3-6.7-17.9-8.1c-4.9-1.2-9.8-2.1-14.8-1.6
		C232.4,86,228.8,86.9,225.2,87.6z"/>
	<path class="st24" d="M275.5,140.5c-1,0.5-1.9,1.1-2.9,1.5c-2.6,0.9-5.3,1.7-8,2.3c-3.1,0.7-6.3,1.2-9.5,1.7
		c-2.8,0.4-5.7,0.7-8.6,1c-0.3,0-0.6,0-0.9,0c-4.2,0-8.4,0.1-12.5,0c-3.4-0.1-6.8-0.6-10.2-1c-3.1-0.4-6.2-1-9.2-1.6
		c-1.1-0.2-2.1-0.6-3.1-0.9c0.4-1.1,0.8-2.1,1.2-3.1c2.8,0.6,5.6,1.3,8.4,1.7c3.6,0.6,7.2,1.1,10.8,1.2c4.4,0.2,8.9,0.4,13.3,0.2
		c5.9-0.2,11.9-0.9,17.7-2.3c3.5-0.9,7-2,10.6-3c0.4-0.1,0.7-0.4,1.1-0.6c0.1,0,0.2,0,0.3,0c0.2,0.4,0.3,0.8,0.5,1.1
		C274.8,139.4,275.2,139.9,275.5,140.5z"/>
	<path class="st19" d="M208,93.6c-1,0.9-2,1.9-3,2.9c-5.7,5.8-5.7,14.7,0.1,20.5c4.9,4.9,10.9,7.6,17.4,9.5c6.9,2,13.9,2.3,20.9,1.9
		c4-0.2,8-0.9,11.9-2c0.3-0.1,0.7-0.1,1-0.2c0,0,0,0.1,0,0.1c-2,0.9-3.8,2.1-6.2,2.3c-6.1,0.6-12.2,0.6-18.3,0.5
		c-1.9,0-3.9-0.5-5.9-0.8c-2.1-0.3-4.2-0.6-6.2-1.1c-2.1-0.6-4.2-1.3-6.3-2.1c-1.6-0.6-3.2-1.3-4.6-2.2c-3.5-2.2-6.5-5-8-8.9
		c-1.9-4.8-2-9.6,0.1-14.4c0.7-1.6,1.2-3.3,2.8-4.2C205.1,94.7,206.4,93.6,208,93.6z"/>
	<path class="st13" d="M274,137.8c-0.1,0-0.2,0-0.3,0c-5.4-3.1-10.7-6.1-16.3-9.3c1-0.6,1.8-1.1,2.6-1.6c5.2-3,10.5-6,15.6-9.1
		c0.8-0.5,1.4-0.5,2.3,0c4.5,2.7,9.1,5.3,13.7,8c0.4,0.2,0.7,0.5,1.1,0.8c0,0.1,0,0.2,0,0.4c-0.3,0.3-0.6,0.6-0.9,0.8
		c-0.1,0-0.3-0.1-0.4-0.1c-4.5-2.6-9-5.2-13.4-7.8c-0.7-0.4-1.1-0.3-1.7,0c-3,1.8-6,3.5-9,5.2c-2,1.1-3.9,2.3-6.1,3.6
		c0.6,0.2,1,0.4,1.4,0.6c2.8,1.7,5.7,3.3,8.5,5c1.5,0.9,3,1.8,4.4,2.7C275,137.3,274.5,137.5,274,137.8z"/>
	<path class="st24" d="M292.7,127c0-0.1,0-0.2,0-0.4c0.4-0.1,0.9-0.2,1.2-0.4c2.5-2.3,4.8-4.9,6.5-8c0.2-0.3,0.5-0.6,0.8-0.9
		c0.8,0.5,1.6,1,2.4,1.5c-1.7,3.6-4.1,6.7-7,9.4c-0.5,0.5-1.2,0.8-1.8,1.3c-0.4-0.7-0.7-1.4-1.1-2C293.5,127.2,293,127.2,292.7,127z
		"/>
	<path class="st3" d="M196.6,346.3c-2.9-6.6-5.8-13.2-8.7-19.8c-1.2-2.8-2.4-5.5-3.6-8.3c-0.1-0.2-0.1-0.5-0.2-0.8
		c0.8-0.5,1.7-1,2.4-1.6c2.8-2.3,4.5-5.3,5.8-8.6c0.9,1.9,1.8,3.9,2.7,5.8c2,4.4,3.9,8.8,5.9,13.2c0.6,1.3,1.3,2.5,2,3.8
		c0.1,0.5,0.2,1,0.4,1.4c0.7,1.7,1.5,3.4,2.3,5.1c0.1,0.2,0.2,0.5,0.4,0.7c0.6,0.8,0.4,2.1,1.6,2.4c-0.1,0.3-0.2,0.6-0.4,0.8
		c-2.4,1.5-4,3.6-5,6.3C200.2,347.2,198.3,347.9,196.6,346.3z"/>
	<path class="st3" d="M140.9,277.6c3.4,7.6,6.8,15.1,10.2,22.7c0.1,0.2,0.3,0.4,0.4,0.6c0.3,0.5,0.6,0.9,0.8,1.3c0.9,2,1.7,4,2.7,6
		c0.2,0.5,0.8,0.8,1.1,1.1c0,0.2,0,0.4,0,0.5c-2.6,1.6-4.4,3.9-5.7,6.6c-1.8,0.7-3.5,1.3-5.2-0.2c-0.2-0.4-0.3-0.8-0.5-1.2
		c0.6-0.3,0.3-0.7,0.1-1c-2.4-5.5-4.9-11-7.4-16.5c-1.5-3.5-3-6.9-4.5-10.4c0.2-0.1,0.5-0.2,0.8-0.4c3-2,4.9-4.8,6.5-8
		C140.4,278.3,140.7,278,140.9,277.6z"/>
	<path class="st25" d="M163.2,311.5c-0.8,0.1-1.5,0.2-2.3,0.3c0-0.1-0.1-0.2-0.1-0.3c0-0.5,0.1-1.1,0.1-1.6c1-3.4,1.9-6.8,2.9-10.2
		c2-6.9,4-13.7,6-20.6c0.2-0.1,0.4-0.2,0.5-0.3c0.3,0.2,0.5,0.5,0.8,0.7c1.5,0.8,3,1.5,4.5,2.3c0.4,0.4,0.7,0.8,1.1,1.1
		c4.3,2.5,8.6,5,12.8,7.5c1.8,1,3.5,2.1,5.3,3.2c0.1,0.1,0.1,0.1,0.2,0.2c0,0,0.1,0,0.1,0c0,0-0.1,0-0.1,0c-0.1-0.1-0.1-0.1-0.2-0.2
		c-1.9-1.9-1.9-4.3-1.6-6.7c0.1-1.3,0.5-2.6,0.8-3.9c0.4-0.3,0.9-0.6,1.3-1c0.1-0.1,0.3-0.2,0.4-0.3l0,0c0.9-0.6,1.9-1.3,2.8-1.9
		c0.5-0.2,1-0.5,1.4-0.8c0.4-0.2,0.8-0.4,1.3-0.6c-0.1,0.3-0.1,0.7-0.3,1c-0.6,1.1-1.3,2.2-1.9,3.3c-1.3,2.5-2.1,5.1-2.1,8
		c0,1.5,0.5,3,0.8,4.5c-0.1,0-0.3,0-0.5,0c0.1,0.3,0.2,0.5,0.3,0.7c-2.2,1.2-4.4,2.4-6.7,3.6c-0.8-0.5-1.5-1-2.2-1.5
		c-2.6-1.4-5.3-2.7-7.9-4.2c-1.8-1-3.3-1-5.1-0.1c-3.2,1.8-6.5,3.6-9.7,5.4c-0.3,0.1-0.4,0.5-0.6,0.7c-0.6,2.1-1.3,4.2-2,6.3
		c-0.5,1.5-0.6,3-0.1,4.6C163.4,310.9,163.2,311.2,163.2,311.5z"/>
	<path class="st15" d="M233.1,373.1c-0.1,1.3-0.2,2.5-0.3,3.8c-1.6-2.3-3.3-4.6-3.9-7.5c-0.6-2.9-1.6-5.7-2.3-8.5
		c-0.2-0.8-0.3-1.7-0.3-2.6c-0.2-5.4-0.4-10.8-0.7-16.3c-0.2-4.1-0.4-8.2-0.6-12.2c-0.1-2.7-0.3-5.5-0.4-8.2c0-0.1,0-0.3,0-0.4
		c0-0.7,0-1.4,0.1-2.1c0.3-0.2,0.7-0.3,1-0.6c1.7-1.2,3.6-1.9,5.7-2c0.1,2.7,0.2,5.5,0.3,8.2c0,1,0.1,2.1,0.2,3.1
		c-0.1,0.1-0.1,0.2-0.1,0.3c0.2,5.6,0.3,11.3,0.5,16.9c0.1,3.5,0.2,7,0.2,10.5c0.1,5.5,0.2,11,0.3,16.4
		C232.6,372.3,232.9,372.7,233.1,373.1z"/>
	<path class="st18" d="M163.2,311.5c0-0.3,0.2-0.5,0.1-0.8c-0.5-1.6-0.4-3.1,0.1-4.6c0.7-2.1,1.3-4.2,2-6.3c3.3,1.5,6.6,3.1,9.9,4.6
		c-0.7,2.6-1.3,5.2-2.1,7.8c-0.7,2.2-0.9,4.3-0.5,6.5c0.3,2,0.5,4,0.7,6c0.2,2.4,0.5,4.9,0.7,7.3c0.3,2.9,0.5,5.8,0.8,8.7
		c-0.7-0.3-1.5-0.6-2.2-1c-0.8-0.5-1.7-1-2.4-1.6c-0.5-0.4-0.9-1.1-1.1-1.7c-0.5-1.7-0.8-3.4-1.2-5.1c-0.4-1.8-0.9-3.6-1.4-5.4
		c-0.6-2.4-1.2-4.7-1.8-7.1C164.3,316.3,163.8,313.9,163.2,311.5z"/>
	<path class="st18" d="M222.2,309.1c-0.8-0.1-1.1,0.3-1.2,1.1c-0.1,1-0.6,2-0.8,3c-0.7,2.6-1.4,5.1-2.1,7.7
		c-0.6,2.5-1.2,4.9-1.9,7.4c-0.6,2.3-1.4,4.6-2.1,7c-0.3,1.1-0.5,2.3-0.8,3.5c-0.1,0.5-0.4,0.9-0.6,1.4c-1.3-1-2.7-1.1-4.3-0.7
		c0-0.4,0-0.6,0.1-0.8c0-0.4,0-0.8,0.1-1.2c0.8-4.9,1.6-9.8,2.3-14.6c0.8-5.1,1.7-10.2,2.5-15.4c1.8,0.1,3.6,0.2,5.3,0.2
		c0.5,0,1-0.4,1.5-0.6C220.8,307.7,221.5,308.4,222.2,309.1z"/>
	<path class="st26" d="M174.9,340.6c-0.3-2.9-0.5-5.8-0.8-8.7c-0.2-2.5-0.4-4.9-0.7-7.3c-0.2-2-0.4-4-0.7-6
		c-0.4-2.2-0.3-4.3,0.5-6.5c0.9-2.5,1.4-5.2,2.1-7.8c0.4-0.2,0.7-0.3,1-0.5c1.8-1.1,3.5-2.1,5.3-3.2c0,0.2,0.1,0.4,0.1,0.5
		c-0.3,0.4-0.6,0.7-0.9,1c-2.7,3.7-4.4,7.6-2.9,12.3c-0.6-0.2-1.2-0.4-2-0.7c0.1,0.9,0.2,1.5,0.2,2.2c0.2,2.6,0.4,5.2,0.7,7.9
		c0,0.1,0.2,0.3,0.4,0.4c0.1,1.8,0.3,3.5,0.3,5.3c0,2.2,0.8,4.4-0.1,6.6c-0.6,1.4-1.1,2.8-1.8,4.2
		C175.6,340.5,175.1,340.5,174.9,340.6z"/>
	<path class="st11" d="M212.4,341.7c1,4-0.5,7.4-3.1,10.2c-1.4,1.6-3.2,2.9-5.7,2.2c-0.6-0.9-1.2-1.8-1.8-2.7c0-0.6,0-1.3,0-1.9
		c0.1-0.1,0.2-0.2,0.2-0.4c0.6-3.9,2.6-6.8,6.1-8.6c1.2-0.6,2.9-0.3,3.8,0.8C212.1,341.5,212.3,341.6,212.4,341.7z M210.4,346.2
		c0-2.5-1.2-3.5-2.8-2.6c-2.1,1.1-3.3,2.9-3.4,5.3c0,0.7,0.4,1.8,0.9,2.2c0.6,0.3,1.7,0.1,2.3-0.3
		C209.2,349.6,210.2,347.8,210.4,346.2z"/>
	<path class="st11" d="M160.8,311.4c0,0.1,0.1,0.2,0.1,0.3c1.5,4.2-1.9,10.4-5.9,12c-0.8,0.3-1.9,0.2-2.8,0.3
		c-0.4-0.4-0.9-0.7-1.3-1.1c0-0.1,0-0.1-0.1-0.1c-0.6-1.5-0.5-3.1-0.3-4.7c0-0.1,0.1-0.3,0.1-0.4c0.1-0.3,0.2-0.6,0.4-0.9
		c1-2.6,2.5-4.8,5.1-6.1C158.3,309.7,159.1,309.7,160.8,311.4z M152.8,318.3c0,2.2,0.9,3.1,2.3,2.7c2.1-0.7,4.2-4.1,3.8-6.3
		c-0.3-1.4-1.4-2.1-2.7-1.4C154.1,314.5,153,316.4,152.8,318.3z"/>
	<path class="st24" d="M222.2,309.1c-0.7-0.7-1.4-1.4-2.1-2.1c-0.3-0.4-0.6-0.7-0.9-1.1c-0.3-0.4-0.8-0.8-0.8-1.3
		c0-1.1,0.2-2.3,0.3-3.4c0.4,0.3,0.8,0.5,1.1,0.8c2.3,3.1,5.8,4.8,8.8,7.1c2.8,2.1,6,3.2,9.1,4.7c0.6,0.3,1,1,1.5,1.5
		c-0.8,0-1.6,0-2.3,0c-0.2,0-0.4-0.1-0.7-0.1c-0.3,0-0.6,0-0.8-0.1c-1.2-0.3-2.4-0.5-3.6-0.8c-0.9-0.3-1.8-0.6-2.7-1
		C226.8,312,224.5,310.6,222.2,309.1z"/>
	<path class="st22" d="M177.2,324.2c-0.1-0.1-0.4-0.3-0.4-0.4c-0.2-2.6-0.4-5.2-0.7-7.9c-0.1-0.6-0.1-1.3-0.2-2.2
		c0.8,0.3,1.4,0.5,2,0.7c2,2.2,3.6,2.5,6.2,1.1c2.1-1.1,3.8-2.7,4.9-4.8c0.9-1.7,1.6-3.6,2.4-5.5c0.3,0.6,0.5,1.2,0.8,1.7
		c-1.3,3.3-3,6.3-5.8,8.6c-0.8,0.6-1.6,1.1-2.4,1.6c-1.2-0.3-1.6,0.8-2.1,1.4C180.3,320.5,178.7,322.4,177.2,324.2z"/>
	<path class="st5" d="M201.8,349.5c0,0.6,0,1.3,0,1.9c-0.2,0.4-0.4,0.7-0.6,1c0.2,0.4,0.4,0.8,0.6,1.2c-2.5-0.6-3.9-2.4-4.8-4.6
		c-0.4-0.8-0.3-1.8-0.4-2.7c1.8,1.7,3.6,0.9,5.5,0.2c-0.1,0.5-0.2,1.1-0.2,1.6C201.8,348.5,201.8,349,201.8,349.5z"/>
	<path class="st5" d="M150.7,317.7c0,0.1-0.1,0.3-0.1,0.4c-0.2,0.2-0.7,0.4-0.7,0.6c-0.2,0.7-0.3,1.5-0.2,2.3c0.1,0.7-0.3,2,1.2,1.8
		c0,0,0.1,0.1,0.1,0.1c-0.1,0.2-0.2,0.4-0.3,0.5c-1.8-0.1-2.8-1.4-3.9-2.5c-1.1-1.2-1.5-2.7-1.7-4.3c0-0.1,0.1-0.3,0.1-0.5
		c1.7,1.5,3.4,0.9,5.2,0.2c0,0.2,0,0.5,0.1,0.7C150.5,317.3,150.6,317.5,150.7,317.7z"/>
	<path class="st23" d="M229.1,313.4c0.9,0.3,1.8,0.6,2.7,1c-0.1,0.7-0.3,1.4-0.5,2c-2.1,0.1-4,0.8-5.7,2c-0.3,0.2-0.7,0.4-1,0.6
		c-0.2-1.9,1.3-2.8,2.4-3.9C227.7,314.5,228.4,314,229.1,313.4z"/>
	<path class="st17" d="M201.8,349.5c0-0.5,0-1,0-1.5c0-0.5,0.1-1.1,0.2-1.6c1-2.6,2.7-4.7,5-6.3c0.2-0.1,0.3-0.5,0.4-0.8
		c0.3-0.2,0.6-0.5,0.9-0.7c0,0.2,0,0.5-0.1,0.8c1.6-0.4,3-0.4,4.3,0.7c-0.1,0.5-0.1,1-0.2,1.5c-0.2-0.1-0.4-0.2-0.5-0.3
		c-0.9-1.1-2.6-1.4-3.8-0.8c-3.5,1.8-5.5,4.7-6.1,8.6C202,349.3,201.9,349.4,201.8,349.5z"/>
	<path class="st17" d="M201.8,353.6c-0.2-0.4-0.4-0.7-0.6-1.2c0.2-0.3,0.4-0.6,0.6-1c0.6,0.9,1.2,1.8,1.8,2.7
		C203,354,202.4,353.8,201.8,353.6z"/>
	<path class="st17" d="M150.6,323.5c0.1-0.2,0.2-0.4,0.3-0.5c0.4,0.4,0.9,0.7,1.3,1.1C151.7,323.8,151.2,323.6,150.6,323.5z"/>
	<path class="st23" d="M224.5,321.1c0,0.1,0,0.3,0,0.4C224.5,321.4,224.5,321.2,224.5,321.1z"/>
	<path class="st7" d="M396.6,288.6c-0.2-0.2-0.5-0.4-0.7-0.5c-2-0.8-3.9-1.6-5.9-2.5c-0.6-0.3-1.2-0.6-1.6-1.1
		c-5.7-7.1-11.4-14.2-17.1-21.3c-0.7-0.9-1-2-1.5-3c0.1-3.4,0.8-6.7,2-9.9c0.5-1.3,1.3-2.5,2-3.7c0.2,0.5,0.3,1,0.5,1.5
		c-2.2,3.4-2.8,7.2-2.7,11.2c0.1,0.9,0.1,1.8,0.2,2.7c0.1,0.5,0.4,0.9,0.6,1.3c5.7,6.9,11.3,13.7,17,20.5c0.3,0.4,0.9,0.7,1.3,1
		c1.5,0.7,3.1,1.2,4.6,2c0.8,0.4,1.5,0.4,2.3,0c3.2-1.9,6.5-3.6,9.7-5.5c0.2-0.1,0.5-0.2,0.9-0.4c0.1,0.6,0.2,1.2,0.3,1.7
		c-3.7,1.9-7.5,3.9-11.2,5.8C397.1,288.5,396.8,288.6,396.6,288.6z"/>
	<path class="st1" d="M259.4,200.4c0,0.1,0,0.2,0,0.2c-1.3,2.8-3.5,4.6-6.1,6.1c-2.9,1.6-6,2.5-9.2,2.9c-5.9,0.6-11.6,0.5-17.2-1.9
		c0.5-0.3,1-0.6,1.6-0.8c1.5-0.6,2-1.4,1.5-2.9c-0.4-1.1-0.8-2.2-1.2-3.3c-0.8-2.1-1.4-4.3-1.4-6.6c0.1-2.5,0.2-5,0.3-7.5
		c0.1-3,0.2-6,0.3-9c1,0.2,2.1,0.5,3.1,0.6c5.3,0.4,10.2-0.8,14.9-3.1c3.9-1.9,7.1-4.7,9.6-8.2c0.8-1.1,1.5-2.2,2.3-3.3
		c0.1,1,0.3,2,0.4,3c0.1,2.5,0.1,5.1,0.2,7.6c0.2,3.6,0.5,7.2,0.6,10.9c0,1.6-0.3,3.3-0.4,4.9c-0.2,2.3-0.6,4.6-0.5,6.8
		C258.2,197.9,258.9,199.1,259.4,200.4z"/>
	<path class="st4" d="M283.7,220.1c1.6,0.4,3.1,0.8,4.7,1.1c3.3,0.6,6.5,1.1,9.8,1.7c1.7,0.3,3.4,0.7,5.1,1.1
		c-1.5,2.5-3.5,4.7-5.6,6.7c-4.1,3.9-8.8,7-13.8,9.5c-8.7,4.3-18,6.8-27.6,8.2c-0.3,0-0.6,0-0.9,0.1c-3.2,0.3-6.3,0.6-9.5,0.8
		c0-0.2-0.1-0.4-0.1-0.5c0-0.6,0-1.3,0-1.9c0.2-0.2,0.4-0.4,0.6-0.6c3.5-3.2,7-6.3,10.5-9.5c0.3-0.2,0.4-0.6,0.7-0.9
		c2.2-0.7,4.5-1.4,6.7-2.2C271.9,230.9,278.8,226.9,283.7,220.1z"/>
	<path class="st22" d="M283.7,220.1c-4.9,6.8-11.8,10.8-19.5,13.6c-2.2,0.8-4.5,1.4-6.7,2.2c-0.3,0-0.7,0.1-1,0.1
		c-4.9,0.6-9.7,1.4-14.6,1.7c-7.7,0.4-15.4-0.4-23-2.3c-5.4-1.4-10.6-3.4-15.4-6.4c-1-0.6-1.9-1.2-2.9-1.8c-2.1-2.1-4.1-4.2-6.2-6.4
		c-0.3-0.6-0.6-1.2-0.9-1.8c-1.6-3-2.6-6.3-2.1-9.7c0.2-1.8,0.7-3.6,1.1-5.3c2.7-6.2,7.9-9.9,13.5-13.1c0.4-0.2,0.7-0.4,1.1-0.7
		c3.4-1.4,6.8-2.7,10.2-4.1c0.1,0,0.2-0.1,0.3-0.1c0.2,0,0.4-0.1,0.6-0.1c-0.1,0.9-0.1,1.7-0.2,2.6c-6.6,2.2-12.7,5.4-17.6,10.4
		c-0.2,0.2-0.3,0.5-0.4,0.7l0,0c-0.1,0.1-0.2,0.2-0.3,0.2c-0.1,0.1-0.3,0.1-0.3,0.2c-1.4,1.8-2.6,3.8-3.1,6
		c-0.5,2.1-0.8,4.2-0.3,6.3c0.3,2.9,1.4,5.4,3.1,7.6c2.2,3,5.1,5.3,8.2,7.2c5,3,10.4,5.2,16.1,6.3c5.4,1.1,10.8,1.8,16.3,1.6
		c1.9-0.1,3.9-0.1,5.8-0.2c2.6-0.2,5.1-0.4,7.6-0.9c3.7-0.9,7.4-2,11-3.1c0.9-0.3,1.7-0.9,2.6-1.3c0.3,0,0.6,0,0.9-0.1
		c2-1.2,4.1-2.3,6-3.6c2.8-2,5.3-4.3,7-7.4c1.6-2.5,2.2-5.3,2.1-8.2c0.1-3.9-1.3-7.2-3.7-10.2c-3.5-4.3-8.1-7-13-9.3
		c-1.5-0.7-3.2-1.4-4.8-1.9c-1-0.3-1.4-0.7-1.3-1.7c0-0.3,0-0.6,0-0.9c0.3,0,0.7,0,1,0.1c6.6,2.1,12.8,5.1,18.2,9.5
		c3.9,3.2,6.7,7.1,7.4,12.2c0.2,1.2,0.2,2.4,0.3,3.7C286.3,214.5,285.3,217.4,283.7,220.1z"/>
	<path class="st3" d="M257.9,163.4c-0.8,1.1-1.5,2.2-2.3,3.3c-2.5,3.6-5.8,6.3-9.6,8.2c-4.7,2.4-9.7,3.5-14.9,3.1
		c-1-0.1-2.1-0.4-3.1-0.6c0-0.1,0-0.2-0.1-0.3c0.1-4.6,0.3-9.1,0.5-13.7c0-0.3,0.4-0.6,0.6-0.9c5.8,0.1,11.6,0.3,17.3,0.1
		c3.9-0.1,7.8-0.8,11.7-1.2c0,0.4,0,0.8,0,1.2c0,0.1,0,0.2-0.1,0.3C257.9,163.2,257.9,163.3,257.9,163.4z"/>
	<path class="st0" d="M282.5,209.9c0.1,2.9-0.5,5.7-2.1,8.2c-1.5-1.1-3-2.1-4.5-3.1c-1.1-0.8-2.3-1.5-3.4-2.2
		c-2.6-1.7-5.1-3.5-7.6-5.2c0.6-2.4,0.7-4.8-0.5-7.2c-1-2.2-2.5-3.9-4.6-5.1c0-2,0-4.1,0-6.4c1.1,0.5,2,0.9,2.9,1.4
		c2.2,1.1,4.5,2.1,6.5,3.4c2,1.3,4.1,2.6,5.6,4.5c0.5,0.6,1.3,1,1.7,1.7c1.1,1.9,2,3.8,3,5.7c0.6,1.1,1.2,2.3,1.9,3.4
		C281.6,209.5,282.1,209.7,282.5,209.9z"/>
	<path class="st3" d="M256.3,248.4c9.6-1.4,18.9-3.9,27.6-8.2c5-2.5,9.7-5.6,13.8-9.5c2.1-2,4.1-4.2,5.6-6.7
		c1.6-2.2,2.5-4.8,3.1-7.4c0.1-0.6,0.2-1.2,0.3-1.8c0.1,0,0.2,0,0.3,0c0.3,0.3,0.6,0.6,0.8,0.9c0.5,0.6,1,1.3,1.5,1.9
		c0,0.1,0,0.1,0,0.2c-0.2,0.3-0.4,0.6-0.5,0.9c-0.6,1.8-1.1,3.7-1.9,5.4c-2.5,5.2-6.3,9.2-10.8,12.7c-7.3,5.7-15.7,9.4-24.5,12
		c-4.6,1.3-9.3,2.1-14,3c-2.2,0.4-4.5,0.5-6.7,0.8c0.8-0.6,1.6-1.2,2.5-1.8C254.4,249.9,255.4,249.1,256.3,248.4z"/>
	<path class="st12" d="M259.8,195.3c2.1,1.2,3.6,2.9,4.6,5.1c1.1,2.3,1.1,4.7,0.5,7.2c-0.1,0.3-0.2,0.6-0.3,1c-1,2.4-3,3.9-4.8,5.6
		c-0.1,0.1-0.3,0-0.4,0.1c0-3,0-5.9-0.1-8.9c0.2-0.9,0.5-1.8,0.7-2.7c0.3-1.3,0.5-2.6-0.2-3.9C259.8,197.6,259.8,196.4,259.8,195.3z
		"/>
	<path class="st21" d="M286.7,211.4c-0.1-1.2-0.1-2.5-0.3-3.7c-0.8-5.1-3.6-9-7.4-12.2c-5.4-4.4-11.5-7.4-18.2-9.5
		c-0.3-0.1-0.7-0.1-1-0.1c0-0.4,0-0.8,0-1.3c2.1,0.8,4.1,1.4,6.1,2.2c4.7,1.8,9.2,3.9,13.2,7c3.3,2.5,6,5.5,7.3,9.5
		c0.9,2.6,0.9,5.2,0.4,7.8C286.8,211.2,286.7,211.3,286.7,211.4z"/>
	<path class="st26" d="M302.5,212.4c0-1,0.1-2,0.1-2.9c1.4,0,2.8,0,4.2,0c0,1.4,0,2.9,0,4.4c-0.1,0-0.2,0.1-0.2,0.1
		c-1.2,0-2.4,0-3.6,0c-0.5,0-0.8-0.1-0.7-0.6C302.4,213,302.5,212.7,302.5,212.4z"/>
	<path class="st25" d="M306.9,209.5c-1.4,0-2.8,0-4.2,0c0-0.1,0-0.1-0.1-0.2c0-0.2,0-0.4,0-0.7c0-0.1,0-0.3,0-0.4c0-0.2,0-0.3,0-0.5
		c0,0,0.1,0,0.1-0.1c1.2,0,2.3,0,3.5,0c0.7,0,1.1,0.2,1.2,1C307.2,208.9,307,209.2,306.9,209.5z"/>
	<path class="st16" d="M302.5,212.4c0,0.3-0.1,0.6-0.1,0.9C302.4,213,302.5,212.7,302.5,212.4z"/>
	<path class="st16" d="M306.6,213.9c0.1,0,0.2-0.1,0.2-0.1c0.1,0.3,0.2,0.6,0.3,0.9c-0.1,0-0.2,0-0.3,0
		C306.8,214.5,306.7,214.2,306.6,213.9z"/>
	<path class="st16" d="M302.5,207.8c0,0.2,0,0.3,0,0.5C302.5,208.1,302.5,207.9,302.5,207.8z"/>
	<path class="st16" d="M302.5,208.6c0,0.2,0,0.4,0,0.7C302.6,209.1,302.6,208.8,302.5,208.6z"/>
	<path class="st1" d="M258,163c0-0.1,0-0.2,0.1-0.3C258,162.9,258,163,258,163z"/>
	<path class="st22" d="M130.4,229c-0.7,1.2-1.4,2.5-2.2,3.6c-4.2,5.8-12.7,7.6-19,4.3c-4.9-2.6-7.4-6.8-8.2-12.2
		c-0.1-3.4,0.5-6.5,2.4-9.4c2.8-4.4,6.8-6.8,12.1-7.1c6.6-0.4,13.6,4.1,15.6,11.7c0.7,2.7,0.5,5.3-0.4,7.9
		C130.5,228.2,130.5,228.6,130.4,229z M103.4,224.3c0.6,1.9,0.9,3.9,1.8,5.6c2.4,4.7,8.8,7.4,14.3,5.8c4.1-1.2,6.7-3.9,8.5-7.7
		c1.2-3,1.3-6,0.1-9.1c-3.3-8.8-14.5-11.3-21-4.8C104.4,217,102.9,220.3,103.4,224.3z"/>
	<path class="st12" d="M147.4,226.9c-0.1,0.4-0.3,0.7-0.4,1.1c-1.5,0.3-3.1,0.7-4.6,1c-0.9,0.2-1.8,0.4-2.6,0.7
		c0.2-0.7,0.4-1.4,0.7-2.1c2-4,2.3-8.3,1.9-12.7c-0.2-2.6-1.2-5-1.9-7.5c-0.1-0.5-0.4-0.9-0.6-1.4c2.9,1.8,5.8,3.7,8.6,5.6
		c0.3,0.2,0.5,0.8,0.5,1.2c-0.6,4-1.3,7.9-1.9,11.9C146.8,225.4,147.2,226.2,147.4,226.9z"/>
	<path class="st14" d="M139.7,229.7c0.9-0.2,1.8-0.5,2.6-0.7c1.5-0.4,3.1-0.7,4.6-1c-0.5,1.6-1,3.2-1.5,4.8
		c-0.1,0.4-0.2,0.8-0.3,1.2c-4.5,1.7-9,3.3-13.5,5c-0.2,0.1-0.3,0.1-0.5,0.1c0.9-0.8,1.8-1.6,2.7-2.3c0.4-0.3,0.8-0.7,1.1-1.1
		c0.9-1.1,1.7-2.1,2.5-3.2c0.5-0.8,0.9-1.6,1.3-2.4c0.2-0.1,0.4-0.2,0.5-0.4C139.5,229.7,139.6,229.7,139.7,229.7z"/>
	<path class="st12" d="M139.4,229.7c-0.2,0.1-0.4,0.2-0.5,0.4c-0.2,0-0.4-0.1-0.6-0.1C138.6,229.9,139,229.8,139.4,229.7z"/>
	<path class="st12" d="M135,230c-0.1,0-0.3-0.1-0.4-0.1C134.7,229.9,134.9,229.9,135,230z"/>
	<path class="st12" d="M133.9,229.8c-0.1,0-0.3-0.1-0.4-0.1C133.6,229.7,133.8,229.7,133.9,229.8z"/>
	<path class="st22" d="M377.6,226.6c-1.4,6.2-5.3,10.2-11.4,11.6c-9,1.9-16.4-3.4-18.5-12.2c-0.2-0.7-0.2-1.4-0.3-2.1
		c0.4-1.9,0.5-3.9,1.2-5.8c2.2-6.1,7.8-9.8,14.3-9.9c8.5-0.2,15.2,7.4,15,15.4C377.9,224.6,377.7,225.6,377.6,226.6z M349.9,223.1
		c0.1,0.7,0.1,1.4,0.2,2.1c1.1,6.1,5.5,10.7,12.1,11c4.4,0.2,8.1-1.5,10.7-5.1c1-1.4,2-2.9,2-4.8c0.1-0.4,0.4-0.7,0.4-1
		c1.4-8.1-5.6-15.5-13.9-14.6C355.1,211.3,350,216.8,349.9,223.1z"/>
	<path class="st7" d="M274,137.8c0.5-0.2,1-0.5,1.5-0.7c0.2,0,0.4,0.1,0.6,0.1c0.5,0.9,1,1.8,1.5,2.8c0.1,0.1,0.1,0.3,0.2,0.4
		c-0.6,0.2-1.1,0.4-1.7,0.6c-0.2-0.2-0.4-0.3-0.5-0.5c-0.4-0.5-0.7-1.1-1-1.6C274.3,138.5,274.1,138.1,274,137.8z"/>
	<path class="st3" d="M192.6,203.8c-0.4,1.8-0.9,3.5-1.1,5.3c-0.4,3.5,0.5,6.7,2.1,9.7c0.3,0.6,0.6,1.2,0.9,1.8
		c-0.3-0.2-0.6-0.4-0.9-0.6c-2.6-1.7-5.1-3.5-7.9-4.9c-3.2-1.6-6.6-2.4-10.2-2c-0.1-1.1-0.1-2.2-0.2-3.3c0-0.6,0-1.1,0-1.8
		c-1.2,0-2.3,0-3.4,0c0-0.3,0-0.5,0-0.8c3.9-0.6,7.9-1.3,11.8-2c2.7-0.5,5.4-1,8.1-1.5C192.1,203.8,192.3,203.8,192.6,203.8z"/>
	<path class="st6" d="M171.9,207.3c0,0.3,0,0.5,0,0.8c0,0.2,0,0.4,0,0.6c-0.1,0.9,0.1,1.3,1.1,1.2c0.8-0.1,1.5,0,2.3,0
		c0.1,1.1,0.1,2.2,0.2,3.3c-1.6,0.6-3.2,1.2-4.9,1.8c-0.6,0.3-1.1,0.5-1.7,0.8c-0.2-0.2-0.3-0.4-0.5-0.7c1.2-1.7,0.8-3.7,1.1-5.5
		c0.2-1.2,0.5-2.3,0.8-3.5c0.5-0.6,1.1-1.1,1.6-1.7c0.1-0.1,0.4-0.2,0.5-0.3C172.3,205.2,172.1,206.3,171.9,207.3z"/>
	<path class="st6" d="M229,162.7c-0.2,0.3-0.6,0.6-0.6,0.9c-0.2,4.6-0.3,9.1-0.5,13.7c-0.8-0.2-1.7-0.4-2.5-0.7
		c-1.7-0.7-3.3-1.5-4.9-2.3c-0.1-0.1-0.2-0.3-0.2-0.4c0.1-0.8,0.2-1.5,0.2-2.3c0.2-3.3,0.4-6.6,0.6-9.9c1.9,0.3,3.9,0.6,5.8,0.8
		c0.4,0.1,0.9-0.1,1.4,0C228.6,162.5,228.8,162.6,229,162.7z"/>
	<path class="st14" d="M347,238.7c-3.3-1.2-6.6-2.5-9.9-3.7c-1.1-0.4-2.3-0.8-3.5-1.2c-0.5-1.7-1-3.4-1.5-5.1
		c1.6-0.4,3.2-0.9,4.8-1.3c0.4-0.1,0.9-0.2,1.3-0.4c1.6,2.6,3.2,5.3,5,7.9c0.9,1.2,2.2,2.1,3.4,3.1
		C346.8,238.3,346.8,238.6,347,238.7z"/>
	<path class="st14" d="M347.4,238.9c-0.1-0.1-0.2-0.1-0.3-0.2C347.2,238.8,347.3,238.9,347.4,238.9z"/>
	<path class="st22" d="M112.7,242.9c-1.1,1.6-1,3.5-1.1,5.4c-0.1,2.4-0.1,4.9-0.5,7.3c-0.3,1.5-1.3,3-2,4.5c0-0.2-0.1-0.4-0.1-0.5
		c-0.2-4.4-1.3-8.5-3.5-12.3c-0.3-0.5-0.7-1-1.2-1.3c-3.5-2.6-7-5.1-10.5-7.6c0.1-0.1,0.3-0.3,0.4-0.4c0.9-1.2,1.9-2.4,3-3.8
		C101.5,238.7,106.6,241.7,112.7,242.9z"/>
	<path class="st5" d="M94.2,237.7c-0.1,0.1-0.3,0.3-0.4,0.4c-2.3-0.3-4.3,0.3-6.5,1.6c0.3-0.8,0.4-1.4,0.6-1.9
		c1.1-0.7,2.1-1.5,3.2-1.9c1-0.4,2.2-0.3,3.2-0.4C94.4,236.2,94.3,237,94.2,237.7z"/>
	<path class="st14" d="M131,239.2c-0.1,0.1-0.2,0.1-0.3,0.2C130.9,239.3,130.9,239.3,131,239.2z"/>
	<path class="st11" d="M217.6,185.8c-0.1,0-0.2,0.1-0.3,0.1C217.4,185.9,217.5,185.9,217.6,185.8z"/>
	<path class="st27" d="M374.3,248.1c-0.2-0.5-0.3-1-0.5-1.5c0.7-0.6,1.3-1.2,2-1.8c3-2.2,6-4.4,9-6.6c0.1-0.1,0.2-0.1,0.3-0.1
		c0.3,1.1-0.2,1.7-1.1,2.4C380.8,243,377.6,245.6,374.3,248.1z"/>
	<path class="st16" d="M251,252.4c2.2-0.2,4.5-0.3,6.7-0.8c4.7-0.9,9.4-1.7,14-3c8.8-2.5,17.2-6.3,24.5-12
		c4.5-3.5,8.3-7.5,10.8-12.7c0.8-1.7,1.3-3.6,1.9-5.4c0.1-0.3,0.3-0.6,0.5-0.9c1.1,1.6,2.1,3.2,3.2,4.9c0,0.6-0.1,1.1-0.1,1.6
		c-0.1,0.2-0.2,0.4-0.3,0.6c-0.8,2.1-1.5,4.3-2.5,6.3c-3.1,6-8,10.4-13.5,14.2c-5.8,4-12.2,6.9-18.9,9.2c-7,2.4-14.1,4-21.4,4.8
		c-1.7,0.2-3.3,0.4-5,0.6c-0.2-0.2-0.3-0.3-0.5-0.5c-0.4-0.6-0.7-1.2-1.1-1.8c-0.3-0.5-0.7-1.1-1-1.6c-0.1-0.1-0.2-0.1-0.2-0.2l0,0
		c-0.3-0.3-0.5-0.8-0.9-1c-0.9-0.5-1.2-1.2-1-2.2C247.8,252.7,249.4,252.5,251,252.4z"/>
	<path class="st7" d="M250.9,260c1.7-0.2,3.3-0.5,5-0.6c7.3-0.8,14.5-2.4,21.4-4.8c6.6-2.3,13-5.2,18.9-9.2
		c5.5-3.8,10.4-8.1,13.5-14.2c1-2,1.7-4.2,2.5-6.3c0.1-0.2,0.2-0.4,0.3-0.6c0.4,2.2-0.1,4.4-0.5,6.6c-0.3,0.8-0.6,1.6-0.9,2.3
		c-1.4,2.5-2.8,5-4.2,7.5c-1.2,1.3-2.4,2.7-3.8,4c-5.2,5-11.3,8.9-18,11.7c-3.9,1.6-7.9,3.3-12,4.4c-4.4,1.3-8.8,2-13.3,2.9
		c-2,0.4-4,0.6-6.1,0.9c-0.9-1.4-1.7-2.9-2.6-4.3C251.1,260.2,251,260.1,250.9,260z"/>
	<path class="st25" d="M312,230.9c0.5-2.2,0.9-4.4,0.5-6.6c0-0.6,0.1-1.1,0.1-1.6c0.3-0.1,0.7-0.2,1-0.4c2.2-1.3,5.6-1,7.2,1
		c1.7,2.1,2,5.2,0.2,7.4c-1.7,2-4.3,2.8-7.1,1.4C313.2,231.7,312.6,231.3,312,230.9z M316.5,230.9c1.8,0,3.3-1.5,3.3-3.4
		c0-1.7-1.5-3.2-3.3-3.2c-1.9,0-3.3,1.3-3.3,3.1C313.2,229.4,314.7,230.9,316.5,230.9z"/>
	<path class="st14" d="M331.9,233.5c-2-0.5-4-1-5.9-1.5c-0.3-0.8-0.6-1.6-0.8-2.3c1.9-0.2,3.7-0.3,5.6-0.5
		C331.1,230.6,331.5,232,331.9,233.5z"/>
	<path class="st22" d="M307.2,214.8c-0.1-0.3-0.2-0.6-0.3-0.9c0-1.5,0-2.9,0-4.4c0.1-0.3,0.3-0.6,0.5-0.9c0.7,1.2,1.3,2.5,2,3.8
		c0.6,1.2,1.2,2.4,1.8,3.6c-0.6,0.5-1.1,1-1.7,1.5c-0.5-0.6-1-1.3-1.5-1.9C307.7,215.3,307.4,215.1,307.2,214.8z"/>
	<path class="st27" d="M259.3,205.3c0,3,0,5.9,0.1,8.9c0,0.1,0,0.3,0,0.4c-0.6,0.3-1.2,0.6-1.9,0.9c-2.8,1.4-5.7,2.6-8.8,3.1
		c-3.1,0.5-6.2,0.6-9.3,0.9c-1.6,0-3.1,0-4.6-0.1c-0.3-0.1-0.6-0.1-0.9-0.2c-0.8-0.1-1.5-0.2-2.3-0.3c-5.1-0.7-9.9-2.4-14-5.5
		c-2.8-2.2-4.9-4.9-5.1-8.7c0-0.2-0.3-0.5-0.4-0.7c0.2-0.4,0.4-0.7,0.5-1.1c0.3-1.7,0.9-3.3,2.2-4.5c0.1-0.1,0.1-0.5,0.1-0.7
		c0.9-0.7,1.8-1.4,2.7-2.1c0.2,0.2,0.5,0.3,0.5,0.5c0,1,0,2-0.2,2.9c-0.3,2.3,0,4.4,1.5,6.3c3.1,3.9,7.4,5.5,12,6.6
		c3.1,0.7,6.4,0.7,9.6,0.7c2.4,0,4.9-0.4,7.3-1.1c3.8-1,7.3-2.5,10-5.6C258.4,205.6,258.9,205.5,259.3,205.3z"/>
	<path class="st7" d="M220.5,174.2c1.6,0.8,3.3,1.6,4.9,2.3c0.8,0.3,1.6,0.5,2.5,0.7c0,0.1,0,0.2,0.1,0.3c-0.1,3-0.2,6-0.3,9
		c-0.1,2.5-0.3,5-0.3,7.5c-0.1,2.3,0.5,4.5,1.4,6.6c0.4,1.1,0.9,2.2,1.2,3.3c0.5,1.5,0,2.4-1.5,2.9c-0.6,0.2-1.1,0.5-1.6,0.8
		c-1.5-0.8-3-1.7-4.4-2.6c-0.5-0.3-0.8-0.8-1.2-1.2c-1.1-3.5-0.4-7-0.2-10.5c0.2-4,0.4-8-0.1-12
		C220.5,179.1,220.6,176.6,220.5,174.2z"/>
	<path class="st0" d="M217.5,195.6c-0.9,0.7-1.8,1.4-2.7,2.1c-2.8,0.3-5.6,0.7-8.4,1c-2.2,0.2-4.3,0.5-6.5,0.7
		c0.1-0.2,0.2-0.6,0.4-0.7c5-5,11-8.2,17.6-10.4c0.1,1.9,0.2,3.8,0.1,5.8C218.1,194.6,217.7,195.1,217.5,195.6z"/>
	<path class="st18" d="M221.1,203.9c0.4,0.4,0.8,0.9,1.2,1.2c1.5,0.9,3,1.7,4.4,2.6c5.5,2.4,11.3,2.5,17.2,1.9
		c3.3-0.3,6.3-1.3,9.2-2.9c2.6-1.4,4.9-3.3,6.1-6.1c-0.1,0.6,0,1.2-0.2,1.8c-1.1,2.5-3.2,4.2-5.5,5.5c-4.2,2.3-8.7,3.3-13.5,3.3
		c-3.6,0-7.2-0.1-10.8-1.2c-2.9-0.9-5.7-2.2-8.1-4.2c-1.7-1.4-2.9-3.1-3.1-5.2C219.1,201.6,220.1,202.7,221.1,203.9z"/>
	<path class="st27" d="M218,199.8c0-0.1,0-0.2,0-0.3c0,0,0.1,0,0.1,0c0,0.1,0,0.2,0,0.3C218.1,199.8,218.1,199.8,218,199.8z"/>
	<path class="st1" d="M71.4,280.3c0.1-2.9,0.1-5.8,0.4-8.6c0.4-3.3,1.2-6.6,1.8-9.9c0.5-2.7,1.9-5.1,3.9-7
		c4.1-3.8,8.2-7.5,12.3-11.3c1.1-1,2.3-1.8,3.8-1.1c0.9,0.5,1.8,1,2.7,1.5c1.4,1.1,2.9,2.2,4.3,3.4c1,0.8,2.2,1.6,2.7,2.7
		c1,2,1.6,4.2,2.3,6.4c0.2,0.5,0.1,1.2,0,1.8c-0.6,1.9-1.3,3.8-2,5.7c-1.9,2.5-3.8,4.9-5.7,7.4c-2.5,3.2-5.1,6.5-7.7,9.7
		c-1.5,1.8-3.2,3.5-5.6,4.3c-1.3,0.4-2.6,0.5-3.8-0.1c-2.8-1.4-5.6-2.8-8.3-4.2C72.1,280.7,71.8,280.5,71.4,280.3z"/>
	<path class="st9" d="M69.4,294.4c-0.6-1.2-1.4-2.4-1.8-3.6c-0.8-2.7-0.6-5.3,1.8-7.3c0.3-0.2,0.6-0.4,0.9-0.6
		c1.4,0.6,2.8,1.3,4.2,2c2.4,1.2,4.8,2.5,7.2,3.8c0,0.6-0.1,1.3,0,1.9c0.2,2.8-1.1,4.6-3.5,5.8c-0.8,0.4-1.8,0.6-2.6,0.9
		c-0.6-0.2-1.1-0.4-1.7-0.6c-1.4-0.6-2.9-1.2-4.3-1.8C69.6,294.6,69.5,294.5,69.4,294.4z"/>
	<path class="st15" d="M103.6,263.8c0.7-1.9,1.4-3.8,2-5.7c0.2-0.5,0.2-1.2,0-1.8c-0.7-2.1-1.3-4.4-2.3-6.4
		c-0.5-1.1-1.7-1.9-2.7-2.7c-1.4-1.2-2.9-2.3-4.3-3.4c0.1-0.1,0.2-0.2,0.2-0.2c0.6-0.1,1.1-0.1,1.7-0.2c1.5,1.1,3,2.2,4.5,3.3
		c0.8,0.6,1.7,1.2,2,2c0.8,1.8,1.3,3.6,1.8,5.5c0.7,3,0.8,6.1,0.5,9.1c-0.2,0.2-0.4,0.4-0.6,0.6C105.5,264,104.5,263.9,103.6,263.8z
		"/>
	<path class="st26" d="M75.6,297.1c0.9-0.3,1.8-0.5,2.6-0.9c2.4-1.1,3.7-3,3.5-5.8c0-0.6,0-1.3,0-1.9c0.3,0,0.7,0,1,0
		c0.1,1.9,0.2,3.7-0.6,5.5c-0.9,2-2.6,3.1-4.5,3.9C77,297.7,76.3,297.4,75.6,297.1z"/>
	<path class="st18" d="M297.5,136.1c0.1,1.1,0.1,2.3,0.2,3.4c-0.5,0.4-1,0.8-1.5,1.2c-0.1-1-0.1-2-0.2-3c-0.1-0.3-0.1-0.6-0.2-0.9
		c-0.7-1.7-1.3-3.4-2-5c-0.1-0.1-0.2-0.3-0.3-0.4l0,0c0-0.1,0-0.3,0-0.4c0.5-0.4,1-0.7,1.4-1.1C295.8,132,296.7,134,297.5,136.1z"/>
	<path class="st23" d="M295,129.9c-0.5,0.4-1,0.7-1.4,1.1c-0.6-1.1-1.2-2.1-1.8-3.2c0.3-0.3,0.6-0.6,0.9-0.8c0.4,0.2,0.8,0.3,1,0.5
		c0.4,0.6,0.7,1.3,1.1,2C294.8,129.6,294.9,129.8,295,129.9z"/>
	<path class="st12" d="M107,263.4c0.4-3.1,0.2-6.1-0.5-9.1c-0.4-1.9-1-3.8-1.8-5.5c-0.3-0.8-1.3-1.4-2-2c-1.5-1.1-3-2.2-4.5-3.3
		c-0.1-0.2-0.2-0.4-0.4-0.6c-1-0.8-2.1-1.5-3-2.3c-1.5-1.5-3.3-1.5-5.1-0.9c-2.7,1-4.9,2.9-6.9,4.9c-2.2,2.3-4.2,4.9-6.3,7.4
		c-0.4,0.5-0.8,1.1-1.1,1.6c-1.9,1.8-2.9,4.2-3.9,6.7c0.2-3.8,1.3-7.1,4.1-9.8c1.9-1.8,3.4-4,5.2-5.9c2.1-2.2,4.4-4.4,6.6-6.5
		c0.1-0.1,0.3-0.1,0.5-0.2c-0.2,0.6-0.4,1.1-0.6,1.9c2.1-1.3,4.2-1.8,6.5-1.6c3.5,2.6,7,5.1,10.5,7.6c0.5,0.3,0.9,0.8,1.2,1.3
		c2.2,3.8,3.2,7.9,3.5,12.3c0,0.2,0,0.4,0.1,0.5C108.4,261.1,107.7,262.3,107,263.4z"/>
	<path class="st19" d="M75.4,253.5c0.4-0.5,0.7-1.1,1.1-1.6c2.1-2.5,4.1-5,6.3-7.4c2-2.1,4.2-3.9,6.9-4.9c1.8-0.6,3.6-0.6,5.1,0.9
		c0.9,0.9,2,1.6,3,2.3c0.2,0.1,0.3,0.4,0.4,0.6c-0.6,0.1-1.1,0.1-1.7,0.2c-1-0.5-2-1-3-1.5c-1.6-1.4-3.9-1.6-5.4-0.1
		c-2.6,2.4-5,5-7.5,7.6C79.2,251.2,77.5,252.6,75.4,253.5z"/>
	<path class="st21" d="M93.7,242.1c1,0.5,2,1,3,1.5c-0.1,0.1-0.2,0.2-0.2,0.2c-0.9-0.5-1.8-1-2.7-1.5
		C93.7,242.3,93.7,242.2,93.7,242.1z"/>
	<path class="st7" d="M296.1,137.8c0.1,1,0.1,2,0.2,3c-0.1,0.1-0.3,0.2-0.4,0.3c-0.1,0.1-0.1,0.1-0.2,0.2c-2.1,1.4-4.1,2.9-6.3,4.2
		c-2.8,1.6-5.7,2.9-8.5,4.3c-0.2-0.3-0.4-0.5-0.5-0.8c-0.1-0.7,0-1.5,0-2.2c3.5-1.8,7.1-3.6,10.6-5.5
		C292.7,140.2,294.4,138.9,296.1,137.8z"/>
	<path class="st18" d="M295.6,141.2c0.1-0.1,0.1-0.1,0.2-0.2C295.8,141.1,295.7,141.1,295.6,141.2z"/>
	<path class="st19" d="M155.6,224.3c1.6-1.1,3.3-2.3,5-3.4c0.2-0.1,0.4-0.1,0.7-0.2c2-0.5,3.9-0.9,6-0.8c0.4,0,0.7-0.4,1.1-0.6
		c0.7,0,1.4,0,2.1,0.1c5.5,1.1,10.1,4.1,14.2,7.6c-0.2,1-1.1,0.9-1.8,1.2c-0.3-0.2-0.6-0.4-0.9-0.6c-3.1-2.6-6.4-4.9-10.2-6.2
		c-1-0.3-1.9-1.1-2.9,0c-0.1,0.1-0.3,0.1-0.4,0.1c-1.6,0.4-3.1,0.8-4.7,1.1c-4.4,0.9-7.9,3.1-10.1,7.1c-0.5,0.9-1.1,1.8-1.6,2.6
		c0.4-1.3,0.7-2.7,1.1-4C153.9,227,154.7,225.7,155.6,224.3z"/>
	<path class="st14" d="M153.1,228.4c-0.4,1.3-0.7,2.7-1.1,4c-0.1,0.1-0.1,0.3-0.2,0.4c-1.6,0.2-3.1,0.5-4.7,0.8
		c-0.1-0.3-0.2-0.5-0.2-0.8c0.5-1.6,1-3.3,1.5-4.9C150,228,151.5,228.2,153.1,228.4z"/>
	<path class="st7" d="M75.6,297.1c0.7,0.3,1.4,0.6,2.1,0.9c-0.6,4.5-1.2,9-1.8,13.5c-0.4,2.8-0.7,5.6-1.1,8.4
		c-0.1,0.3-0.2,0.7-0.3,1c-0.4-0.3-0.9-0.5-1.1-0.9c-1.3-2.5-2-5.3-2.4-8c-0.9-5.7-1.2-11.4-1.3-17.1c1.4,0.6,2.9,1.2,4.3,1.8
		C74.5,296.7,75,296.9,75.6,297.1z"/>
	<path class="st2" d="M202.8,89.6c-1.8,2.3-3.6,1.2-5.3,0.4c-2-1-3.9-2.1-5.7-3.4c-0.7-0.5-1.1-1.3-1.5-2.1
		c-0.3-0.6,0.3-1.5,1.1-1.6c2.5-0.2,4.8,0.1,6.8,1.9c1,1,2.3,1.8,3.3,2.7C202,88.2,202.3,89,202.8,89.6z"/>
	<path class="st17" d="M184.7,227.1c-4.2-3.6-8.7-6.6-14.2-7.6c-0.7-0.1-1.4-0.1-2.1-0.1c-2,0.2-4,0.4-6,0.6c0.5-0.3,1.1-0.7,1.6-1
		c0.2,0.1,0.4,0.2,0.5,0.2c2.6-0.8,5.2-0.6,7.8-0.1c3.1,0.7,5.9,1.9,8.4,3.6c2,1.3,3.8,2.8,5.8,4.2c2.1,2.3,4.5,4.5,6.4,7
		c5.9,7.6,9.8,16.1,11.2,25.6c0.1,1.2,0.2,2.3,0.3,3.5c0.3,4.3-0.2,8.4-2,12.4c-0.8,1.2-1.7,2.5-2.5,3.8c-0.5,0.2-1,0.5-1.4,0.8
		c0.9-1.4,2-2.8,2.8-4.3c1.9-3.8,2-7.9,1.8-12.1c0-0.9-0.3-1.8-0.4-2.7c-0.1-1.4-0.1-2.9-0.5-4.3C199.3,244.8,193.6,235,184.7,227.1
		z"/>
	<path class="st16" d="M172.3,218.9c-2.6-0.5-5.2-0.6-7.8,0.1c-0.1,0-0.4-0.1-0.5-0.2c1.6-1,3.3-2,5-3c0.6-0.3,1.1-0.5,1.7-0.8
		c0.8,0.8,1.8,0.5,2.6,0.1c1.5-0.6,3-0.3,4.5-0.2c-1.2,1.6-2.9,2.5-4.6,3.3C172.8,218.3,172.6,218.6,172.3,218.9z"/>
	<path class="st12" d="M162.4,219.8c2-0.2,4-0.4,6-0.6c-0.4,0.2-0.8,0.6-1.1,0.6c-2.1-0.1-4,0.3-6,0.8
		C161.6,220.4,162,220.1,162.4,219.8z"/>
	<path class="st3" d="M296.1,137.8c-1.7,1.2-3.3,2.5-5.1,3.5c-3.5,1.9-7.1,3.7-10.6,5.5c-0.6-1.5-1.3-3-1.9-4.5
		c-0.2-0.6-0.5-1.2-0.7-1.9c-0.1-0.1-0.1-0.3-0.2-0.4c0.4-0.1,0.7-0.2,1.1-0.3c1-0.4,2-0.9,2.9-1.4c2.8-1.6,5.6-3.2,8.4-4.9
		c1.1-0.6,2.2-1.2,3.2-1.9c0.1,0,0.2,0,0.3,0l0,0c0.1,0.1,0.2,0.3,0.3,0.4c0.7,1.7,1.4,3.4,2,5C295.9,137.1,296,137.5,296.1,137.8z"
		/>
	<path class="st1" d="M259.6,276.1c-0.5,6-0.8,11.9-0.6,17.9c0,0.3-0.1,0.7-0.1,1c-0.2,0-0.4-0.1-0.7-0.1c-0.1,0-0.3-0.1-0.4-0.1
		c-5.4-1.9-10.7-4.5-16.4-5.6c-7.3-1.4-14.5-0.8-21.4,2c-0.3,0.1-0.7,0.2-1,0.3c0-0.1,0-0.2,0-0.3c-0.1-4.5-0.2-9-0.4-13.5
		c0-0.6-0.1-1.1-0.2-1.7c0-0.1,0-0.3,0.1-0.4c0-0.1,0-0.1,0-0.2l0.1,0l0.1,0c0.1,0.2,0.3,0.4,0.5,0.7c2.4-3.2,5.3-5.6,8.9-7.3
		c4.4-2.1,9-2.8,13.8-2.4c5.8,0.5,10.8,2.9,15,7C257.7,274.2,258.6,275.2,259.6,276.1z"/>
	<path class="st9" d="M218.4,276.1c0.1,0.6,0.2,1.1,0.2,1.7c0.1,4.5,0.3,9,0.4,13.5c0,0.1,0,0.2,0,0.3c-0.1,3.2-0.2,6.5-0.3,9.7
		c-0.1,1.1-0.3,2.3-0.3,3.4c0,0.4,0.5,0.9,0.8,1.3c0.3,0.4,0.6,0.7,0.9,1.1c-0.5,0.2-1,0.6-1.5,0.6c-1.8,0-3.6-0.1-5.3-0.2
		c-2.8-0.6-5.2-1.8-7.5-3.6c-0.4-0.3-0.8-0.6-1.2-0.8c-1.4-2-2.7-4.1-4.1-6.1c0-0.4,0.1-0.7,0-1c-0.2-1.6-0.4-3.3-0.6-5
		c5.3,1.2,9.8,3.6,13.3,8.3c0.2-1.6,0.4-2.8,0.6-3.9c0.1-0.2,0.4-0.4,0.6-0.6c0.5,2.8,1.7,5.3,3.1,7.7c0.1,0,0.3,0,0.4-0.1
		c0-3.4,0.1-6.8,0.1-10.1c0-0.5,0.1-0.9,0.1-1.4c-0.1-4.4-0.2-8.9-0.2-13.3C218,277,218.2,276.6,218.4,276.1z"/>
	<path class="st22" d="M231.3,316.4c0.1-0.7,0.3-1.4,0.5-2c1.2,0.3,2.4,0.5,3.6,0.8c0.1,0.9,0.1,1.9,0.2,2.8
		c0.1,2.4,0.3,4.8,0.5,7.1c0,0.3,0.5,0.8,0.7,0.8c1.5,0.1,3,0.1,4.4,0c0.3,0,0.7-0.4,0.7-0.7c0.2-3.4,0.4-6.7,0.6-10.1
		c1.3-0.3,2.6-0.6,4.1-0.9c0,0.8,0,1.5,0,2.2c0,0.2,0,0.4,0,0.6c0,0.4-0.1,0.8-0.1,1.2c-0.1,3.2-0.2,6.3-0.3,9.5c-1,0-1.9,0-2.9,0
		c-2.2,0-4.4-0.1-6.6-0.1c-1.6,0-3.3,0-4.9,0.1c-0.1-1-0.2-2.1-0.2-3.1C231.5,321.9,231.4,319.1,231.3,316.4z"/>
	<path class="st25" d="M242.6,315.2c-0.2,3.4-0.4,6.7-0.6,10.1c0,0.2-0.5,0.6-0.7,0.7c-1.5,0.1-3,0.1-4.4,0c-0.3,0-0.7-0.5-0.7-0.8
		c-0.2-2.4-0.3-4.8-0.5-7.1c-0.1-1-0.1-1.9-0.2-2.8c0.3,0,0.6,0,0.8,0.1c0.2,0,0.4,0.1,0.7,0.1c0.8,0,1.6,0,2.3,0c0.6,0,1.1,0,1.7,0
		c0.1,0,0.3-0.1,0.5-0.1C241.7,315.2,242.1,315.2,242.6,315.2z"/>
	<path class="st8" d="M246.2,327.7c0.1-3.2,0.2-6.3,0.3-9.5c0-0.4,0-0.8,0.1-1.2c0.1-0.1,0.3-0.3,0.4-0.4c0.3,0.1,0.6,0.1,0.9,0.2
		c-0.1,3.4,0.1,6.9-0.3,10.2c-0.6,5.3-0.1,10.5-0.3,15.8c-0.1,3.5-0.1,7-0.2,10.6c-0.2,4.2-0.4,8.4-0.6,12.5c0,0.6-0.1,1.2-0.1,1.9
		c-0.2,1.3-0.5,2.6-0.7,3.9c-0.1-0.4-0.2-0.7-0.2-1.1c0.1-3.7,0.1-7.5,0.2-11.2c0.1-3.5,0.1-6.9,0.2-10.4c0.1-4.2,0.1-8.4,0.2-12.6
		c0-2.1,0.1-4.2,0.2-6.3C246.2,329.4,246.2,328.5,246.2,327.7z"/>
	<path class="st4" d="M247,316.6c-0.1,0.1-0.3,0.3-0.4,0.4c0-0.2,0-0.4,0-0.6C246.8,316.5,246.9,316.6,247,316.6z"/>
	<path class="st27" d="M257.8,294.9c0.1,0,0.3,0.1,0.4,0.1C258.1,295,258,294.9,257.8,294.9z"/>
	<path class="st22" d="M241.3,315.2c-0.1,0-0.3,0.1-0.5,0.1C241,315.3,241.2,315.3,241.3,315.2z"/>
	<path class="st7" d="M227.3,260c-0.1,0.1-0.3,0.3-0.4,0.4c0-0.7-0.5-0.6-0.9-0.6c-2.6-0.3-5.3-0.6-7.9-1c-1.6-0.2-3.2-0.6-4.7-0.9
		c-0.4-2.6-0.8-5.2-1.2-7.8c1.9,0.3,3.8,0.8,5.7,1c4.6,0.6,9.3,1.1,13.9,1.7c-0.1,1-0.4,1.9-1.4,2.4c-0.2,0.1-0.2,0.5-0.3,0.8l0,0
		c-0.1,0.1-0.3,0.2-0.4,0.3c-0.1,0.2-0.3,0.4-0.4,0.5C228,257.5,227.8,258.8,227.3,260C227.3,259.9,227.4,260,227.3,260z"/>
	<path class="st18" d="M213.3,257.9c1.6,0.3,3.1,0.7,4.7,0.9c2.6,0.4,5.3,0.7,7.9,1c0.4,0,1-0.1,0.9,0.6c-0.8,1.3-1.6,2.7-2.4,4
		c-1-0.1-2.1-0.1-3.1-0.3c-2.8-0.4-5.5-0.9-8.2-1.4c0.1-1.4,0.1-2.7,0.2-4.1C213.3,258.4,213.3,258.1,213.3,257.9z"/>
	<path class="st9" d="M221.6,269.2c-3.1-0.6-6.3-1.2-9.4-1.8c0.3-1.6,0.6-3.1,0.9-4.7c2.7,0.5,5.5,1,8.2,1.4c1,0.2,2.1,0.2,3.1,0.3
		C223.5,266,222.5,267.6,221.6,269.2z"/>
	<path class="st0" d="M250.9,260c0.1,0.1,0.2,0.2,0.4,0.4c-0.8-0.3-1.6-0.5-2.4-0.9c-2-0.8-4.2-1.1-6.4-1.3c-4.1-0.4-8,0.4-12,1
		c-0.9,0.1-1.7,0.7-2.5,1c-0.1,0.1-0.4-0.1-0.6-0.1c0,0,0-0.1,0-0.1c1.2-1.1,2.5-1.9,4.1-2.2c4.2-0.7,8.4-0.9,12.6-0.5
		c2.2,0.2,4.6,0.5,6.3,2.3C250.6,259.7,250.7,259.9,250.9,260z"/>
	<path class="st1" d="M246.2,327.7c0,0.8-0.1,1.7-0.1,2.5c-0.1,2.1-0.1,4.2-0.2,6.3c-0.1,4.2-0.1,8.4-0.2,12.6
		c-0.1,3.5-0.1,6.9-0.2,10.4c-0.1,3.7-0.2,7.5-0.2,11.2c0,0.4,0.1,0.7,0.2,1.1c-0.1,0.5-0.3,1.1-0.5,1.6c-1.9-3.3-5-3.4-8.3-3
		c-1.7,0.2-2.9,1.2-3.8,2.8c-0.1-0.4-0.4-0.8-0.4-1.2c-0.1-5.5-0.2-11-0.3-16.4c-0.1-3.5-0.1-7-0.2-10.5c-0.1-5.6-0.3-11.3-0.5-16.9
		c0-0.1,0.1-0.2,0.1-0.3c1.6,0,3.3-0.1,4.9-0.1c2.2,0,4.4,0.1,6.6,0.1C244.3,327.8,245.3,327.7,246.2,327.7z"/>
	<path class="st6" d="M214.1,274.2c1.4,0.1,2.9,0.1,4.4,0.2c0,0.4,0,0.7,0,1.1l-0.1,0l-0.1,0c0,0.1,0,0.1,0,0.2c0,0.1,0,0.3-0.1,0.4
		c-0.2,0.5-0.3,0.9-0.5,1.4c-0.2,0.1-0.5,0.2-0.6,0.4c-1.7,2.8-3,5.8-3.3,9c0,0.1,0,0.3-0.1,0.4c0,1.3,0,2.7,0,4
		c0,0.1,0.1,0.3,0.1,0.5c0.1,0.8,0.3,1.6,0.4,2.3c0,0.2,0,0.4,0,0.6c-0.2,0.2-0.6,0.4-0.6,0.6c-0.2,1.1-0.4,2.3-0.6,3.9
		c-3.4-4.7-8-7.1-13.3-8.3c0.1-1.1,0-2.2,0.2-3.3c0.4-2.6,1.6-4.9,3.3-7c2.7-3.2,5.9-5.6,10.2-6.1
		C213.8,274.6,214,274.3,214.1,274.2z"/>
	<path class="st1" d="M271.7,115c-1,1.1-1.9,2.4-3.1,3.4c-4.7,3.9-10.3,6.2-16.2,7.7c-6,1.4-12.1,1.8-18.3,1.3
		c-2.1-0.1-4.2-0.5-6.4-0.8c1-3.4,2-6.9,3-10.3c0.5-1.8,1.1-3.6,1.6-5.4c1.2,0.1,2.3,0.2,3.5,0.2c4,0,8,0.2,12-1
		c3.9-1.1,7.5-2.5,10.4-5.4c0.1-0.1,0.3-0.1,0.5-0.1c0.1,0.1,0.3,0.2,0.4,0.3c2.6,2.1,5.2,4.2,7.8,6.3
		C268.5,112.3,270.1,113.7,271.7,115z"/>
	<path class="st23" d="M232.2,110.8c-0.5,1.8-1.1,3.6-1.6,5.4c-1,3.4-2,6.9-3,10.3c-2.6-0.7-5.2-1.2-7.7-2.1c-2.8-1.1-5.6-2.5-8.2-4
		c-3.3-2-6-4.6-7.7-8.1c-0.4-0.8-0.5-1.7-0.7-2.6c2.6-2,5.2-4.1,7.8-6.1c1.7-1.3,3.4-2.7,5.1-4c0.1,0.2,0.2,0.4,0.3,0.7
		c0.5,1.9,1.5,3.5,3,4.8c3.2,2.8,7,4.4,11.1,5.4C231.1,110.4,231.7,110.6,232.2,110.8z"/>
	<path class="st2" d="M271.7,115c-1.6-1.3-3.2-2.7-4.8-4c-2.6-2.1-5.2-4.2-7.8-6.3c-0.1-0.1-0.3-0.2-0.4-0.3
		c0.3-0.6,0.6-1.2,0.9-1.8c2-3.2,1.6-7-1-10.1c-1.9-2.2-4.4-3.5-6.9-4.7c-0.3-0.1-0.5-0.5-0.8-0.7c6.6,1.4,12.7,3.7,17.9,8.1
		c3.6,3.1,6,6.8,5.9,11.8c0,2.6-0.8,5-2.3,7.2C272.2,114.6,271.9,114.8,271.7,115z"/>
	<path class="st16" d="M216.2,99.5c-1.7,1.3-3.4,2.7-5.1,4c-2.6,2-5.2,4.1-7.8,6.1c-0.2-0.7-0.5-1.4-0.6-2.2
		c-0.2-2.4,0.5-4.7,1.6-6.8c2-3.7,5.1-6.2,8.6-8.3c3.6-2.2,7.5-3.7,11.6-4.7c0.2-0.1,0.4-0.1,0.6-0.1c-0.1,0.2-0.1,0.4-0.2,0.4
		c-0.9,0.5-1.8,1-2.6,1.5C218.4,91.7,215.9,94.8,216.2,99.5z"/>
	<path class="st21" d="M216.2,99.5c-0.3-4.7,2.2-7.8,6.1-10c0.9-0.5,1.8-1,2.6-1.5c0.1-0.1,0.2-0.3,0.2-0.4c3.6-0.7,7.2-1.6,10.9-2
		c5-0.6,9.9,0.3,14.8,1.6c0.3,0.2,0.5,0.6,0.8,0.7c2.6,1.2,5.1,2.5,6.9,4.7c2.6,3.1,3,6.9,1,10.1c-0.4,0.6-0.6,1.2-0.9,1.8
		c-0.2,0-0.4,0-0.5,0.1c-2.9,2.9-6.6,4.3-10.4,5.4c-3.9,1.1-8,1-12,1c-1.2,0-2.3-0.1-3.5-0.2c-0.6-0.2-1.1-0.4-1.7-0.5
		c-4.1-1-7.9-2.5-11.1-5.4c-1.4-1.3-2.4-2.9-3-4.8C216.4,99.9,216.3,99.7,216.2,99.5z M238.7,85.9c0,0.1,0,0.2,0,0.3
		c-4.2-0.2-8.2,0.4-12.1,2.1c-2.8,1.2-5.4,2.7-7.4,5.1c-2.2,2.7-2.2,7.3,0.1,10c2.5,3,5.9,4.7,9.5,5.7c4.6,1.4,9.4,1.7,14.1,1.1
		c5-0.6,9.6-2,13.6-5.3c3.6-3,4.6-7.8,1.4-11.7c-2.7-3.4-6.6-5-10.6-6.1C244.5,86.4,241.6,86.3,238.7,85.9z"/>
	<path class="st0" d="M276.1,137.1c-0.2,0-0.4-0.1-0.6-0.1c-1.5-0.9-2.9-1.9-4.4-2.7c-2.8-1.7-5.7-3.3-8.5-5c0.4-0.4,0.7-0.8,1.1-1
		c0.6-0.3,1.3-0.5,1.9-0.8c0.7-0.4,1.3-0.9,2-1.3c2.2-1.2,4.4-2.3,6.6-3.4c1-0.5,2-1.3,3.1-1.3c1.1,0,2.3,0.7,3.4,1.3
		c2.2,1.2,4.3,2.4,6.5,3.6c1.2,0.7,2.5,1.6,3.7,2.3c-0.1,0.1-0.2,0.3-0.4,0.4c-3.6,2.1-7.1,4.2-10.7,6.3
		C278.5,136,277.3,136.6,276.1,137.1z"/>
	<path class="st19" d="M290.7,128.7c-1.2-0.8-2.4-1.6-3.7-2.3c-2.1-1.2-4.3-2.5-6.5-3.6c-1.1-0.6-2.3-1.2-3.4-1.3
		c-1,0-2.1,0.8-3.1,1.3c-2.2,1.1-4.4,2.2-6.6,3.4c-0.7,0.4-1.3,0.9-2,1.3c-0.6,0.3-1.3,0.5-1.9,0.8c-0.4,0.2-0.7,0.7-1.1,1
		c-0.4-0.2-0.8-0.3-1.4-0.6c2.2-1.3,4.1-2.4,6.1-3.6c3-1.8,6-3.5,9-5.2c0.6-0.4,1.1-0.4,1.7,0c4.5,2.6,9,5.2,13.4,7.8
		c0.1,0.1,0.3,0.1,0.4,0.1c0.6,1.1,1.2,2.1,1.8,3.2c0,0.1,0,0.3,0,0.4c-0.1,0-0.2,0-0.3,0C292.4,130.5,291.6,129.6,290.7,128.7z"/>
	<path class="st24" d="M151.8,232.8c0.1-0.1,0.1-0.3,0.2-0.4c0.6-0.9,1.1-1.7,1.6-2.6c2.2-4,5.7-6.2,10.1-7.1
		c1.6-0.3,3.1-0.7,4.7-1.1c0.1,0,0.3,0,0.4-0.1c1-1.1,1.9-0.3,2.9,0c3.9,1.3,7.1,3.6,10.2,6.2c0.3,0.2,0.6,0.4,0.9,0.6
		c0.1,0.1,0.1,0.2,0.2,0.4c2.2,2.3,4.5,4.4,6.4,6.8c3.2,4.1,5.9,8.6,7.8,13.5c1,2.8,1.8,5.6,2.6,8.4c0.4,1.3,0.6,2.7,0.8,4
		c0.1,0.7,0.1,1.4,0.2,2.1c0.2,4.5-0.1,9-1.7,13.3c-0.1,0.2-0.4,0.3-0.7,0.5c-0.2,0-0.5,0.1-0.7,0.1c-3.9-0.3-7.5-1.3-11-3
		c-1.4-0.7-2.7-1.4-4-2.1c0.1-0.7,0.3-1.4,0.4-2.1c0-0.1,0.1-0.3,0.1-0.4c0-0.2,0.1-0.4,0.1-0.6c0.3,0.2,0.7,0.4,1,0.6
		c0.4,0.4,0.7,0.9,1.2,1.2c1.4,1,3,1.8,4.4,2.8c2.4,1.6,5,2,7.8,1.9c1,0,1.4-0.6,1.6-1.5c0.1-0.3,0-0.6,0.1-0.9
		c0.9-3.4,1-6.9,0.6-10.4c-0.3-2.2-1.1-2.9-3.3-2.4c-2.2,0.5-4.4,1.1-6.5,1.7c-0.3,0.1-0.6,0.1-0.8,0.1c-2,0-4.1-0.1-6.1-0.2
		c-0.2-0.8-0.3-1.5-0.5-2.3c-1.6-5.9-4.5-11.1-8.6-15.6c-2.5-2.8-5.5-5.1-9.1-6.5c-2.4-0.9-4.9-1.3-7.3-0.3c-2.6,1-4.1,3-5,5.6
		c-0.2,0-0.4,0-0.7,0c-0.8-2.2-0.3-4.6-0.4-6.9c0-0.8,0.1-1.5,0.1-2.3C151.9,233.5,151.8,233.1,151.8,232.8z"/>
	<path class="st18" d="M123.8,309c-0.1,0.3-0.2,0.6-0.4,1c-1.6-1.1-3.2-2.1-4.6-3.3c-0.3-0.3-0.4-0.9-0.6-1.4
		c-2.2-8.7-4.4-17.4-6.6-26.2c-0.1-0.6-0.1-1.2,0.1-1.8c0.7-2.4,1.4-4.7,2.2-7.1c0.1-0.3,0.3-0.6,0.4-0.9c0.8,0.5,1.6,1,2.4,1.4
		c2.4,1.1,4.9,2.2,7.4,3.3c-0.4,1.6-0.7,3.2-1.2,4.8c-0.9,2.8-2.1,5.5-1.6,8.5c0.4,3,0.6,5.9,0.9,8.9c0.3,2.5,0.5,5.1,0.8,7.6
		C123.2,305.6,122.8,307.4,123.8,309z"/>
	<path class="st5" d="M156.1,309.3c-0.4-0.4-0.9-0.7-1.1-1.1c-0.9-2-1.8-4-2.7-6c-0.2-0.5-0.5-0.9-0.8-1.3c0.3-4,0.6-8,0.9-12
		c0.2-2.5,0.3-5,0.4-7.5c0.2-2.7,0.4-5.4,0.6-8.1c0.2,0.1,0.4,0.1,0.6,0.2c1.7,1,3.5,2.1,5.2,3c0.8,0.4,1.6,0.7,2.5,1
		c-0.4,2.9-0.8,5.8-1.3,8.6c-0.7,4.3-1.4,8.6-2.1,13c-0.5,3-0.9,6.1-1.3,9.1c-0.1,0.1-0.1,0.3-0.2,0.5c0,0.1,0,0.3,0,0.4
		C156.6,309.2,156.4,309.2,156.1,309.3z"/>
	<path class="st12" d="M132.4,285.6c-0.2,0.1-0.4,0.2-0.6,0.3c-0.1,0-0.2,0.1-0.2,0.1h0c-1.8,0.5-3.6,0.4-4.6-1.3
		c-0.6-1-0.7-2.4-1.1-3.6c0-2.5,0.7-4.8,2-6.9c0.8-1.3,1.7-2.5,2.6-3.7c0.1,0,0.1,0,0.1-0.1c0.1,0,0.1-0.1,0.2-0.1
		c0.6-0.5,1.1-1,1.7-1.5c1.4-0.4,2.7-0.8,4.1-1.2c2.9,1.1,3.8,3.4,3.5,6.3c-0.1,0.7-0.1,1.4-0.1,2.1c-0.1,0.1-0.1,0.2-0.2,0.2
		C138.3,280.3,136.2,283.6,132.4,285.6z M136.9,274.8c0-1.1-0.3-2-1.2-2.5c-0.9-0.5-1.9-0.2-2.7,0.4c-2.3,1.5-3.5,3.6-3.7,6.3
		c-0.1,1,0.1,1.9,1,2.5c1,0.7,2.1,0.4,3-0.2C135.5,279.7,136.6,277.4,136.9,274.8z"/>
	<path class="st26" d="M130.4,270.6c-0.9,1.2-1.8,2.4-2.6,3.7c-1.2,2.1-1.9,4.4-2,6.9c-1.1,1.2-1.4,2.7-1.2,4.2
		c0.2,2.7,0.6,5.4,0.8,8.1c0,1.5,0,3.1,0.1,4.6c0.1,2.1,0.4,4.1,0.5,6.2c0,0.3-0.2,0.7-0.3,1c-0.6,1.2-1.3,2.5-1.9,3.7
		c-0.9-1.6-0.6-3.4-0.8-5.1c-0.4-2.5-0.6-5.1-0.8-7.6c-0.3-3-0.5-6-0.9-8.9c-0.5-3.1,0.7-5.8,1.6-8.5c0.5-1.6,0.8-3.2,1.2-4.8
		c1.3-0.7,2.6-1.4,3.8-2.1C128.7,271.5,129.6,271,130.4,270.6z"/>
	<path class="st9" d="M161.7,277.6c-0.8-0.3-1.7-0.6-2.5-1c-1.8-1-3.5-2-5.2-3c-0.2-0.1-0.4-0.1-0.6-0.2c0.2-1.4-1-1.9-1.7-2.8
		c-1.7-2.2-2.8-4.6-2.8-7.4c1.7,0.7,3.4,1.5,5.1,2.2c1.2,0.5,2.4,0.8,3.7,1.2c0.9,1.1,1.8,2.2,2.7,3.2c2.9,3.4,6.3,6.4,9.9,9
		c-0.2,0.1-0.4,0.2-0.5,0.3c-0.2-0.1-0.3-0.1-0.5-0.2c-1.2-0.8-2.4-1.6-4.1-1.3c-0.7,0.1-1.5-0.1-2.3-0.1
		C162.6,277.5,162.1,277.5,161.7,277.6z"/>
	<path class="st14" d="M130.4,270.6c-0.9,0.4-1.7,0.9-2.6,1.3c-1.3,0.7-2.6,1.4-3.8,2.1c-2.5-1.1-4.9-2.2-7.4-3.3
		c-0.8-0.4-1.6-1-2.4-1.4c3.2-1.8,6.5-3.7,9.8-5.5c0.3,0.2,0.6,0.5,0.9,0.7c2.5,1.5,5,2.9,7.6,4.4c-0.6,0.5-1.1,1-1.7,1.5
		c-0.1,0-0.1,0.1-0.2,0.1C130.6,270.6,130.5,270.6,130.4,270.6z"/>
	<path class="st6" d="M157.8,266.5c-1.2-0.4-2.5-0.7-3.7-1.2c-1.7-0.7-3.4-1.5-5.1-2.2c-0.7-2.5-0.5-5.1,0.4-7.5
		c0.5-1.4,1.2-2.8,1.9-4.1c0.1-0.2,0.3-0.3,0.5-0.5c0.3,1.4,0.6,2.8,1,4.1c0.7,2.1,1.5,4.1,2.2,6.1c0.2,0.4,0.3,0.8,0.5,1.1
		C156.2,263.8,157,265.1,157.8,266.5z"/>
	<path class="st9" d="M125.5,293.5c-0.3-2.7-0.6-5.4-0.8-8.1c-0.1-1.5,0.2-3,1.2-4.2c0.3,1.2,0.4,2.5,1.1,3.6c1,1.7,2.8,1.7,4.6,1.3
		c-0.5,0.8-1,1.6-1.6,2.3c-1.3,1.6-2.6,3.2-3.9,4.8C125.9,293.3,125.7,293.4,125.5,293.5z"/>
	<path class="st19" d="M132.4,268.8c-2.5-1.5-5-2.9-7.6-4.4c-0.3-0.2-0.6-0.4-0.9-0.7c1.8-1.1,3.6-1.2,5.5-0.1c2.3,1.4,4.7,2.7,7,4
		C135.1,268,133.8,268.4,132.4,268.8z"/>
	<path class="st17" d="M132.4,285.6c3.7-2.1,5.9-5.4,7.2-9.3c0-0.1,0.1-0.2,0.2-0.2c0.4,0.5,0.7,1,1.1,1.5c-0.2,0.4-0.6,0.7-0.8,1.1
		c-1.6,3.2-3.5,6-6.5,8c-0.2,0.1-0.5,0.2-0.8,0.4C132.8,286.5,132.6,286.1,132.4,285.6z"/>
	<path class="st11" d="M155,261.3c-0.7-2-1.5-4.1-2.2-6.1c-0.4-1.3-0.7-2.7-1-4.1c0-1.1,0-2.1-0.1-3.2c0.1-1.3,0.2-2.5,0.3-3.8
		c0-0.4,0-0.7,0.1-1.1c0.2,0,0.4,0,0.7,0c-0.8,3.6-0.8,7.2,0.1,10.8c0.6,2.5,1.7,4.9,2.6,7.4C155.3,261.2,155.2,261.2,155,261.3z"/>
	<path class="st21" d="M152.2,243c0,0.4,0,0.7-0.1,1.1c-0.1,1.3-0.2,2.5-0.3,3.8c0-3.9,0-7.8,0-11.7
		C151.8,238.4,151.4,240.7,152.2,243z"/>
	<path class="st9" d="M131.6,286c0.1,0,0.2-0.1,0.2-0.1C131.7,286,131.6,286,131.6,286z"/>
	<path class="st5" d="M202.9,329.8c0.2-3.4,0.5-6.8,0.7-10.2c0.3-5,0.6-9.9,0.9-14.9c0-0.2,0.1-0.4,0.1-0.6c0-0.4,0-0.7,0-1.1
		c0.4,0.3,0.9,0.5,1.2,0.8c2.2,1.8,4.7,3,7.5,3.6c-0.8,5.1-1.7,10.2-2.5,15.4c-0.8,4.9-1.6,9.8-2.3,14.6c-0.1,0.4,0,0.8-0.1,1.2
		c-0.3,0.2-0.6,0.5-0.9,0.7c-1.3-0.3-1.1-1.6-1.6-2.4c-0.1-0.2-0.2-0.5-0.4-0.7c-0.8-1.7-1.6-3.4-2.3-5.1
		C203,330.8,203,330.3,202.9,329.8z"/>
	<path class="st17" d="M205.5,336.3c0.1,0.2,0.2,0.5,0.4,0.7C205.7,336.8,205.6,336.6,205.5,336.3z"/>
	<path class="st17" d="M156.1,309.3c0.2,0,0.5,0,0.7-0.1c1.4-0.3,2.8-0.3,4,0.6c0,0.5-0.1,1.1-0.1,1.6c-1.7-1.7-2.5-1.8-4.6-0.7
		c-2.6,1.3-4,3.5-5.1,6.1c-0.1,0.3-0.2,0.6-0.4,0.9c-0.1-0.2-0.1-0.4-0.2-0.6c-0.1-0.2-0.1-0.5-0.1-0.7c1.2-2.8,3-5,5.7-6.6
		C156.2,309.7,156.1,309.4,156.1,309.3z"/>
	<path class="st18" d="M160.9,309.8c-1.2-1-2.6-1-4-0.6c0-0.1,0-0.3,0-0.4c0.1-0.1,0.1-0.3,0.2-0.5c0.4-3,0.9-6.1,1.3-9.1
		c0.7-4.3,1.4-8.6,2.1-13c0.4-2.9,0.9-5.8,1.3-8.6c0.4,0,0.8-0.1,1.2-0.1c0.8,0,1.6,0.2,2.3,0.1c1.6-0.2,2.8,0.6,4.1,1.3
		c0.1,0.1,0.3,0.1,0.5,0.2c-2,6.9-4,13.7-6,20.6C162.8,303,161.8,306.4,160.9,309.8z"/>
	<path class="st6" d="M182.8,272.3c1.3,0.7,2.6,1.4,4,2.1c3.5,1.7,7.1,2.7,11,3c0.2,0,0.5,0,0.7-0.1c0,0.2,0,0.5-0.1,0.7
		c-0.7,1-1.4,1.9-2.2,2.8c-0.2,0.3-0.4,0.6-0.6,0.9l0,0c-0.1,0.1-0.3,0.2-0.4,0.3c-0.4,0.3-0.9,0.6-1.3,1c-0.4,0.1-0.9,0.1-1.3,0.3
		c-1.8,0.6-3.5,1.2-5.4,1c-0.6-0.1-1.1,0.1-1.7,0.1c-0.5,0-1-0.1-1.5-0.2c-0.1,0-0.1,0-0.1,0c-0.2,0-0.5-0.1-0.8-0.1
		c-0.4-0.2-0.7-0.5-1.1-0.6c-4.1-1.5-7.7-3.5-11-6.4c0.2,0,0.5,0,0.7,0.1c3.6,1.4,8.2,0,10.1-3.4
		C182.1,273.2,182.5,272.7,182.8,272.3z"/>
	<path class="st12" d="M190.9,299.4c0.9,1.9,0.9,3.9,0.6,5.9c-0.8,1.8-1.4,3.7-2.4,5.5c-1.1,2.1-2.8,3.7-4.9,4.8
		c-2.7,1.4-4.2,1.1-6.2-1.1c-1.5-4.7,0.2-8.6,2.9-12.3c0.3-0.4,0.6-0.7,0.9-1c0.1-0.1,0-0.3-0.1-0.5c1.4-0.8,2.7-1.6,4.1-2.2
		c0.9-0.4,1.9-0.3,2.9-0.5C189.4,298.4,190.2,298.9,190.9,299.4z M188.3,304.4c-0.2-0.4-0.5-1.2-1.1-1.8c-0.8-0.7-1.8-0.4-2.6,0.1
		c-2.5,1.5-3.8,3.8-3.9,6.8c-0.1,2.3,1.6,3.3,3.6,2.2C186.9,310.1,188.1,307.7,188.3,304.4z"/>
	<path class="st19" d="M188.7,297.9c-1,0.1-2,0.1-2.9,0.5c-1.4,0.6-2.7,1.5-4.1,2.2c-1.8,1.1-3.5,2.2-5.3,3.2
		c-0.3,0.2-0.7,0.4-1,0.5c-3.3-1.5-6.6-3.1-9.9-4.6c0.2-0.2,0.4-0.5,0.6-0.7c3.2-1.8,6.5-3.5,9.7-5.4c1.7-1,3.3-1,5.1,0.1
		C183.4,295.3,186,296.6,188.7,297.9z"/>
	<path class="st10" d="M200.5,297c-0.6-0.3-1.1-0.6-1.6-0.8c-0.4-0.2-0.8-0.2-1.3-0.3c-0.1-0.2-0.2-0.5-0.3-0.7c0.2,0,0.4,0,0.5,0
		c-0.3-1.5-0.7-3-0.8-4.5c-0.1-2.8,0.7-5.5,2.1-8c0.6-1.1,1.3-2.2,1.9-3.3c0.2-0.3,0.2-0.7,0.3-1c1.8-1.1,3.6-2.1,5.4-3.2
		c1.2-0.8,2.4-1.6,2.9-3c0.2-0.1,0.4-0.2,0.6-0.4c1.3,0.8,2.7,1.6,4,2.5c-0.2,0.1-0.3,0.4-0.5,0.4c-4.3,0.5-7.5,2.9-10.2,6.1
		c-1.7,2-2.9,4.3-3.3,7c-0.2,1.1-0.1,2.2-0.2,3.3c0.2,1.6,0.4,3.3,0.6,5C200.6,296.2,200.5,296.6,200.5,297z"/>
	<path class="st9" d="M184.1,284.1c0.5,0.1,1,0.1,1.5,0.2c0.6,0,1.1-0.1,1.7-0.1c1.9,0.2,3.6-0.4,5.4-1c0.4-0.1,0.9-0.2,1.3-0.3
		c-0.3,1.3-0.6,2.6-0.8,3.9c-0.2,2.4-0.2,4.8,1.6,6.7l0,0c-1.8-1.1-3.5-2.2-5.3-3.2c-4.3-2.5-8.6-5-12.8-7.5
		c-0.4-0.3-0.7-0.7-1.1-1.1c2.5,0.9,4.9,2.2,7.6,2.2c0.2,0,0.5,0.1,0.8,0.1L184.1,284.1L184.1,284.1z"/>
	<path class="st21" d="M183.2,284c-2.7,0-5.1-1.4-7.6-2.2c-1.5-0.8-3-1.5-4.5-2.3c-0.3-0.1-0.5-0.4-0.8-0.7c-3.6-2.6-7-5.6-9.9-9
		c-0.9-1.1-1.8-2.2-2.7-3.2c-0.8-1.4-1.5-2.7-2.2-4.1c-0.2-0.4-0.3-0.8-0.5-1.1c0.1,0,0.3-0.1,0.5-0.1c0.3,0.5,0.5,1,0.8,1.5
		c2,3.6,4.4,7.1,7.6,9.7c2.2,1.7,4.7,3,7.1,4.5c3.3,2.8,6.9,4.9,11,6.4C182.4,283.5,182.8,283.8,183.2,284z"/>
	<path class="st3" d="M195.7,281.6c0.2-0.3,0.4-0.6,0.6-0.9c0.7-0.9,1.5-1.9,2.2-2.8c0.1-0.2,0.1-0.5,0.1-0.7
		c0.2-0.2,0.6-0.3,0.7-0.5c1.6-4.3,2-8.8,1.7-13.3c0-0.7-0.1-1.4-0.2-2.1c0.6-0.2,1.2-0.5,1.9-0.7c0.1,0.9,0.4,1.8,0.4,2.7
		c0.2,4.1,0,8.3-1.8,12.1c-0.8,1.5-1.8,2.9-2.8,4.3C197.6,280.4,196.6,281,195.7,281.6z"/>
	<path class="st11" d="M209.5,272.1c-0.6,1.4-1.7,2.3-2.9,3c-1.8,1.1-3.6,2.1-5.4,3.2c-0.4,0.2-0.8,0.4-1.3,0.6
		c0.8-1.2,1.7-2.5,2.5-3.8c1.1-0.5,2.3-0.9,3.4-1.4C207.1,273.3,208.3,272.7,209.5,272.1z"/>
	<path class="st3" d="M195.2,281.9c0.1-0.1,0.3-0.2,0.4-0.3C195.5,281.7,195.4,281.8,195.2,281.9z"/>
	<path class="st9" d="M195,293.7c-0.1-0.1-0.1-0.1-0.2-0.2l0,0C194.9,293.6,195,293.6,195,293.7L195,293.7z"/>
	<path class="st9" d="M195.1,293.7C195.1,293.7,195.1,293.7,195.1,293.7C195.1,293.7,195.1,293.7,195.1,293.7
		C195,293.7,195.1,293.7,195.1,293.7z"/>
	<path class="st22" d="M210.4,346.2c-0.2,1.6-1.1,3.4-2.9,4.5c-0.6,0.4-1.8,0.6-2.3,0.3c-0.6-0.3-0.9-1.4-0.9-2.2
		c0.1-2.4,1.3-4.2,3.4-5.3C209.2,342.7,210.4,343.7,210.4,346.2z"/>
	<path class="st22" d="M152.8,318.3c0.2-2,1.3-3.9,3.4-5c1.2-0.7,2.4,0,2.7,1.4c0.4,2.2-1.6,5.6-3.8,6.3
		C153.7,321.5,152.8,320.5,152.8,318.3z"/>
	<path class="st17" d="M150.9,322.8c-1.5,0.1-1.1-1.1-1.2-1.8c-0.1-0.7,0.1-1.5,0.2-2.3c0.1-0.2,0.5-0.4,0.7-0.6
		C150.4,319.7,150.3,321.2,150.9,322.8z"/>
	<path class="st22" d="M236.9,315.3c-0.2,0-0.4-0.1-0.7-0.1C236.4,315.3,236.6,315.3,236.9,315.3z"/>
	<path class="st3" d="M200.6,227.1c1,0.6,1.9,1.2,2.9,1.8c4.8,3,9.9,5.1,15.4,6.4c7.5,1.9,15.2,2.7,23,2.3c4.9-0.3,9.7-1.1,14.6-1.7
		c0.3,0,0.7-0.1,1-0.1c-0.2,0.3-0.4,0.7-0.7,0.9c-3.5,3.2-7,6.3-10.4,9.5c-0.2,0.2-0.4,0.4-0.6,0.6c-4.5,0-9.1,0-13.7,0
		c0,0.7,0.1,1.3,0.1,1.9c-0.3,0.1-0.7,0.4-1,0.4c-1.3,0-2.6-0.1-3.9-0.3c-5.1-0.8-10.2-1.7-15.4-2.6c-0.2,0-0.5,0.2-0.8,0.4
		c-1.5-5.2-3.9-10-6.9-14.4C203.1,230.4,201.9,228.8,200.6,227.1z"/>
	<path class="st6" d="M211.1,246.6c0.3-0.1,0.6-0.4,0.8-0.4c5.1,0.8,10.2,1.8,15.4,2.6c1.3,0.2,2.6,0.2,3.9,0.3c0.3,0,0.7-0.3,1-0.4
		c4.5,0,9.1,0,13.6,0c0,0.2,0.1,0.4,0.1,0.5c-0.1,0-0.1,0.1-0.1,0.1c-1.6,0-3.3,0-4.9,0c-2.6-0.1-5.2-0.1-7.8-0.2
		c-0.7,0-0.9,0.4-1,0.9c-0.1,0.9-0.2,1.8-0.3,2.7c-4.6-0.6-9.3-1.1-13.9-1.7c-1.9-0.2-3.8-0.7-5.7-1
		C211.8,248.9,211.5,247.8,211.1,246.6z"/>
	<path class="st26" d="M251,252.4c-1.6,0.1-3.2,0.3-4.8,0.4c-0.1-1.1-0.3-2.3-0.5-3.4c0,0,0.1-0.1,0.1-0.1c3.2-0.3,6.3-0.6,9.5-0.8
		c0.3,0,0.6,0,0.9-0.1c-1,0.8-1.9,1.5-2.9,2.2C252.6,251.2,251.8,251.8,251,252.4z"/>
	<path class="st25" d="M245.8,248.7c-4.5,0-9.1,0-13.6,0c0-0.6-0.1-1.2-0.1-1.9c4.6,0,9.2,0,13.7,0
		C245.8,247.4,245.8,248.1,245.8,248.7z"/>
	<path class="st6" d="M234.7,219.4c1.6,0,3.1,0,4.6,0.1c0.1,0.5,0.2,1,0.2,1.4c0,4.7,0,9.3,0,14c-5.5,0.2-11-0.5-16.3-1.6
		c-5.7-1.2-11.1-3.3-16.1-6.3c-3.1-1.9-6-4.2-8.2-7.2c-1.7-2.3-2.8-4.8-3.1-7.6c0.7-0.4,1.4-0.8,2.2-1.1c4.6-2.4,9.3-4.7,14-7
		c0.1,0.2,0.4,0.5,0.4,0.7c0.2,3.8,2.3,6.5,5.1,8.7c4.1,3.2,8.9,4.8,14,5.5c0.8,0.1,1.5,0.2,2.3,0.3
		C234.1,219.4,234.4,219.4,234.7,219.4z"/>
	<path class="st18" d="M239.6,234.9c0-4.7,0-9.3,0-14c0-0.5-0.1-1-0.2-1.4c3.1-0.3,6.2-0.4,9.3-0.9c3.1-0.5,6-1.7,8.8-3.1
		c0.6-0.3,1.2-0.6,1.9-0.9c1.7,3.4,3.4,6.8,5.1,10.2c0.7,1.5,1.4,3,2.1,4.6c-0.9,0.4-1.7,1-2.6,1.3c-3.6,1.1-7.3,2.3-11,3.1
		c-2.5,0.6-5.1,0.7-7.6,0.9C243.5,234.9,241.5,234.9,239.6,234.9z"/>
	<path class="st1" d="M266.6,229.3c-0.7-1.5-1.4-3.1-2.1-4.6c-1.7-3.4-3.4-6.8-5.1-10.2c0-0.1,0-0.3,0-0.4c0.1,0,0.3,0,0.4-0.1
		c1.8-1.6,3.8-3.2,4.8-5.6c0.1-0.3,0.2-0.6,0.3-1c2.5,1.7,5.1,3.5,7.6,5.2c1.1,0.8,2.3,1.5,3.4,2.2c1.5,1,3,2.1,4.5,3.1
		c-1.7,3.1-4.2,5.4-7,7.4c-1.9,1.3-4,2.4-6,3.6C267.2,229.3,266.9,229.3,266.6,229.3z"/>
	<path class="st8" d="M211.1,246.6c0.3,1.1,0.7,2.3,1,3.4c0.4,2.6,0.8,5.2,1.2,7.8c0,0.3,0,0.5,0,0.8c-0.2-0.5-0.6-0.9-0.7-1.4
		c-0.4-1.3-0.6-2.6-0.9-3.9c-0.6-2.1-1.2-4.2-1.7-6.3c-0.6-2.3-1-4.6-2.3-6.6c-1.4-2.2-2.8-4.3-4.1-6.5c-0.8-1.4-1.4-2.9-2.4-4.2
		c-1.4-1.7-3-3.3-4.5-4.9c-0.6-0.6-1.3-0.8-2.2-0.8c-2.9,0.1-5.4,1.4-7.9,2.6c-1.9-1.4-3.8-2.9-5.8-4.2c-2.6-1.7-5.4-3-8.4-3.6
		c0.3-0.2,0.5-0.5,0.8-0.7c1.7-0.8,3.4-1.6,4.6-3.3c-1.5,0-3-0.3-4.5,0.2c-0.8,0.3-1.8,0.7-2.6-0.1c1.6-0.6,3.2-1.2,4.9-1.8
		c3.6-0.4,7.1,0.3,10.2,2c2.7,1.4,5.2,3.3,7.9,4.9c0.3,0.2,0.6,0.4,0.9,0.6c2.1,2.1,4.1,4.2,6.2,6.4c1.2,1.7,2.5,3.4,3.6,5.1
		C207.3,236.7,209.6,241.5,211.1,246.6z"/>
	<path class="st3" d="M212,204.1c-4.6,2.4-9.3,4.7-14,7c-0.7,0.4-1.4,0.7-2.2,1.1c-0.5-2.1-0.2-4.2,0.3-6.3c0.6-2.2,1.7-4.2,3.1-6
		c0.1-0.1,0.2-0.1,0.3-0.2c0.1-0.1,0.2-0.2,0.3-0.2l0,0c2.2-0.2,4.3-0.5,6.5-0.7c2.8-0.3,5.6-0.7,8.4-1c0,0.2,0,0.6-0.1,0.7
		c-1.3,1.2-1.9,2.8-2.2,4.5C212.4,203.4,212.2,203.7,212,204.1z"/>
	<path class="st0" d="M199.9,199.5c-0.1,0.1-0.2,0.2-0.3,0.2C199.7,199.6,199.8,199.6,199.9,199.5z"/>
	<path class="st16" d="M103.4,224.3c-0.5-4,1-7.3,3.7-10.1c6.5-6.6,17.7-4,21,4.8c1.2,3,1.1,6.1-0.1,9.1c-1.5-0.5-3.1-1.1-4.6-1.6
		C116.9,224.2,110.2,223.7,103.4,224.3z"/>
	<path class="st7" d="M103.4,224.3c6.8-0.6,13.5,0,20,2.1c1.5,0.5,3.1,1.1,4.6,1.6c-1.7,3.8-4.3,6.5-8.5,7.7
		c-5.6,1.6-12-1.1-14.3-5.8C104.3,228.1,104,226.1,103.4,224.3z"/>
	<path class="st16" d="M349.9,223.1c0-6.3,5.2-11.8,11.6-12.5c8.2-0.9,15.3,6.5,13.9,14.6c-0.1,0.4-0.3,0.7-0.4,1
		c-0.2-0.1-0.3-0.2-0.5-0.2c-3.6-0.7-7.2-1.5-10.9-2.1c-3.1-0.5-6.3-1-9.5-1.3C352.8,222.6,351.3,222.9,349.9,223.1z"/>
	<path class="st7" d="M349.9,223.1c1.4-0.1,2.8-0.5,4.2-0.4c3.2,0.3,6.4,0.7,9.5,1.3c3.6,0.6,7.2,1.4,10.9,2.1
		c0.2,0,0.3,0.1,0.5,0.2c0,1.9-1,3.4-2,4.8c-2.7,3.6-6.4,5.3-10.7,5.1c-6.6-0.3-11-4.9-12.1-11C350,224.5,350,223.8,349.9,223.1z"/>
	<path class="st24" d="M290.7,128.7c0.8,0.9,1.7,1.8,2.5,2.8c-1.1,0.6-2.1,1.2-3.2,1.9c-2.8,1.6-5.6,3.3-8.4,4.9
		c-0.9,0.5-1.9,1-2.9,1.4c-0.3,0.1-0.7,0.2-1.1,0.3c-0.5-0.9-1-1.8-1.5-2.8c1.2-0.6,2.4-1.1,3.5-1.8c3.6-2.1,7.1-4.2,10.7-6.3
		C290.5,128.9,290.6,128.8,290.7,128.7z"/>
	<path class="st25" d="M175.3,209.9c-0.8,0-1.5,0-2.3,0c-1,0.1-1.2-0.3-1.1-1.2c0-0.2,0-0.4,0-0.6c1.1,0,2.2,0,3.4,0
		C175.3,208.8,175.3,209.3,175.3,209.9z"/>
	<path class="st9" d="M245.7,249.4c0.1,1.1,0.3,2.3,0.5,3.4c-0.2,1,0.1,1.7,1,2.2c0.4,0.2,0.6,0.6,0.9,1c-0.3-0.1-0.7-0.2-1-0.4
		c-3.1-1.9-6.4-2.8-10.1-2.4c-2.5,0.3-4.8,1.4-6.9,2.8c0.1-0.3,0.1-0.7,0.3-0.8c0.9-0.5,1.2-1.4,1.4-2.4c0.1-0.9,0.1-1.8,0.3-2.7
		c0.1-0.6,0.3-0.9,1-0.9c2.6,0.1,5.2,0.2,7.8,0.2C242.4,249.4,244.1,249.4,245.7,249.4z"/>
	<path class="st21" d="M230.1,256c2.1-1.3,4.4-2.4,6.9-2.8c3.7-0.5,7,0.5,10.1,2.4c0.3,0.2,0.7,0.2,1,0.4l0,0
		c0.1,0.1,0.2,0.2,0.2,0.2c0.3,0.5,0.7,1.1,1,1.6c-6.8-2.3-13.5-1.8-20.3-0.2c0.1-0.2,0.1-0.5,0.2-0.8c0.1-0.2,0.3-0.4,0.4-0.5
		C229.8,256.1,229.9,256,230.1,256L230.1,256z"/>
	<path class="st26" d="M229.2,256.8c-0.1,0.3-0.1,0.5-0.2,0.8c6.8-1.5,13.6-2.1,20.3,0.2c0.4,0.6,0.7,1.2,1.1,1.8
		c-1.8-1.7-4.1-2-6.3-2.3c-4.2-0.4-8.4-0.2-12.6,0.5c-1.6,0.3-3,1.1-4.1,2.2C227.8,258.8,228,257.4,229.2,256.8z"/>
	<path class="st9" d="M248.3,256.2c-0.1-0.1-0.2-0.1-0.2-0.2C248.2,256,248.2,256.1,248.3,256.2z"/>
	<path class="st10" d="M316.5,230.9c-1.8,0-3.3-1.5-3.3-3.4c0-1.8,1.4-3.1,3.3-3.1c1.8,0,3.3,1.5,3.3,3.2
		C319.8,229.4,318.3,230.9,316.5,230.9z"/>
	<path class="st18" d="M234.7,219.4c-0.3-0.1-0.6-0.1-0.9-0.2C234.1,219.4,234.4,219.4,234.7,219.4z"/>
	<path class="st19" d="M293.8,131.8c-0.1-0.1-0.2-0.3-0.3-0.4C293.6,131.5,293.7,131.7,293.8,131.8z"/>
	<path class="st16" d="M202.6,260.6c-0.6,0.2-1.2,0.5-1.9,0.7c-0.3-1.3-0.4-2.7-0.8-4c-0.8-2.8-1.6-5.7-2.6-8.4
		c-1.8-4.9-4.5-9.4-7.8-13.5c-1.9-2.4-4.3-4.6-6.4-6.8c-0.1-0.1-0.1-0.2-0.2-0.4c0.7-0.3,1.6-0.2,1.8-1.2
		c8.9,7.9,14.6,17.8,17.5,29.3C202.5,257.7,202.5,259.2,202.6,260.6z"/>
	<path class="st1" d="M186.5,226.7c2.5-1.3,5-2.5,7.9-2.6c0.9,0,1.6,0.1,2.2,0.8c1.5,1.6,3.1,3.1,4.5,4.9c1,1.2,1.6,2.8,2.4,4.2
		c1.3,2.2,2.7,4.4,4.1,6.5c1.3,2,1.8,4.3,2.3,6.6c0.5,2.1,1.1,4.2,1.7,6.3c-0.1,0.1-0.2,0.2-0.2,0.3c-1.1,3.6-4.1,4.7-7.2,5.6
		c-1.4-9.6-5.4-18-11.2-25.6C191,231.2,188.6,229.1,186.5,226.7z"/>
	<path class="st15" d="M204.1,259.4c3.1-0.9,6.2-2,7.2-5.6c0-0.1,0.1-0.2,0.2-0.3c0.3,1.3,0.6,2.6,0.9,3.9c0.1,0.5,0.5,0.9,0.7,1.4
		c-0.1,1.4-0.1,2.7-0.2,4.1c-0.3,1.6-0.6,3.1-0.9,4.7c-0.7,1.4-1.4,2.9-2.1,4.3c-0.2,0.1-0.4,0.2-0.6,0.4c-1.2,0.6-2.4,1.2-3.7,1.8
		c-1.1,0.5-2.3,0.9-3.4,1.4c1.8-3.9,2.3-8.1,2-12.4C204.3,261.7,204.2,260.5,204.1,259.4z"/>
	<path class="st9" d="M218.4,275.7c0-0.1,0-0.1,0-0.2C218.4,275.5,218.4,275.6,218.4,275.7z"/>
	<path class="st16" d="M213.9,286.9c0.3-3.3,1.6-6.3,3.3-9c0.1-0.2,0.4-0.3,0.6-0.4c0.1,4.4,0.2,8.9,0.2,13.3c0,0.5,0,0.9-0.1,1.4
		c-1.2,0.6-2.5,1.3-3.7,1.9c-0.1-0.8-0.3-1.6-0.4-2.3c0-0.1-0.1-0.3-0.1-0.5c0-1.3,0-2.7,0-4C213.9,287.2,213.9,287.1,213.9,286.9z"
		/>
	<path class="st11" d="M214.4,294.1c1.2-0.6,2.5-1.3,3.7-1.9c0,3.4-0.1,6.8-0.1,10.1c-0.1,0-0.3,0-0.4,0.1c-1.4-2.4-2.6-4.9-3.1-7.7
		C214.4,294.5,214.4,294.3,214.4,294.1z"/>
	<path class="st9" d="M230.1,255.9c-0.1,0.1-0.3,0.2-0.4,0.3C229.8,256.1,229.9,256,230.1,255.9z"/>
	<path class="st11" d="M213.9,286.9c0,0.1,0,0.3-0.1,0.4C213.9,287.2,213.9,287.1,213.9,286.9z"/>
	<path class="st11" d="M213.9,291.3c0,0.1,0.1,0.3,0.1,0.5C213.9,291.6,213.9,291.5,213.9,291.3z"/>
	<path class="st2" d="M238.7,85.9c2.9,0.4,5.9,0.5,8.6,1.2c4,1.1,7.8,2.7,10.6,6.1c3.2,3.9,2.2,8.7-1.4,11.7
		c-3.9,3.3-8.6,4.7-13.6,5.3c-4.8,0.5-9.5,0.2-14.1-1.1c-3.6-1.1-6.9-2.8-9.5-5.7c-2.3-2.7-2.4-7.3-0.1-10c2-2.4,4.6-3.9,7.4-5.1
		c3.9-1.6,7.9-2.3,12.1-2.1C238.6,86.1,238.7,86,238.7,85.9z"/>
	<path class="st25" d="M171,277c-2.4-1.5-4.9-2.8-7.1-4.5c-3.3-2.6-5.6-6.1-7.6-9.7c-0.3-0.5-0.5-1-0.8-1.5
		c-0.9-2.5-1.9-4.9-2.6-7.4c-0.9-3.6-0.9-7.2-0.1-10.8c0.9-2.5,2.5-4.5,5-5.6c2.5-1,4.9-0.7,7.3,0.3c3.6,1.4,6.5,3.7,9.1,6.5
		c4.1,4.5,7,9.7,8.6,15.6c0.2,0.8,0.4,1.5,0.5,2.3c0,2.3,0.1,4.7,0.1,7c0,0.2-0.1,0.4-0.1,0.6c0,0.1-0.1,0.3-0.1,0.4
		c-0.1,0.7-0.3,1.4-0.4,2.1c-0.3,0.5-0.7,0.9-1,1.5c-1.9,3.4-6.5,4.8-10.1,3.4C171.5,277,171.2,277,171,277z M164.9,270.9
		c0.9,1.6,2.2,2.6,3.6,3.4c2,1.2,4.2,1.9,6.4,1.7c3.4-0.3,6.1-2.5,7-6.1c0.5-1.9,0.6-3.7,0.4-5.6c-0.2-2-0.4-3.9-1-5.8
		c-0.9-3.1-2.2-6.1-4.2-8.8c-1.3-1.8-2.4-3.7-3.9-5.2c-2.4-2.3-5.1-4.4-8.4-5.5c-4.1-1.3-7.4-0.7-9.9,3.2c-1.1,1.6-1.3,3.5-1.4,5.3
		c-0.2,1.9,0,3.7,1.1,5.5c0.1-1.2,0.2-2.3,0.4-3.3c0.7-3.5,3.6-5.9,7.3-5.1c2.8,0.6,5,2.2,7,4.1c2,1.9,3.5,4.2,4.8,6.6
		c1.9,3.6,2.9,7.4,2.4,11.5c-0.6,4.2-4,6.7-8.2,5.3C167.1,271.8,166.1,271.3,164.9,270.9z"/>
	<path class="st15" d="M183.4,269.1c0-2.3-0.1-4.7-0.1-7c2,0.1,4.1,0.1,6.1,0.2c0.3,0,0.6-0.1,0.8-0.1c2.2-0.5,4.4-1.1,6.5-1.7
		c2.2-0.5,3.1,0.2,3.3,2.4c0.4,3.5,0.3,7-0.6,10.4c-0.1,0.3,0,0.6-0.1,0.9c-0.2,0.9-0.6,1.5-1.6,1.5c-2.8,0.1-5.4-0.3-7.8-1.9
		c-1.4-1-2.9-1.8-4.4-2.8c-0.5-0.3-0.8-0.8-1.2-1.2C184.1,269.5,183.8,269.3,183.4,269.1z"/>
	<path class="st15" d="M183.2,270.2c0-0.1,0.1-0.3,0.1-0.4C183.3,269.9,183.3,270,183.2,270.2z"/>
	<path class="st17" d="M157,308.3c-0.1,0.1-0.1,0.3-0.2,0.5C156.9,308.6,157,308.5,157,308.3z"/>
	<path class="st22" d="M136.9,274.8c-0.3,2.6-1.4,4.9-3.7,6.5c-0.9,0.6-1.9,0.9-3,0.2c-0.9-0.6-1.1-1.5-1-2.5
		c0.2-2.7,1.4-4.8,3.7-6.3c0.8-0.5,1.7-0.9,2.7-0.4C136.6,272.8,136.9,273.8,136.9,274.8z"/>
	<path class="st26" d="M130.6,270.5c0.1,0,0.1-0.1,0.2-0.1C130.7,270.4,130.6,270.4,130.6,270.5z"/>
	<path class="st9" d="M204.6,304.1c0,0.2-0.1,0.4-0.1,0.6C204.5,304.5,204.6,304.3,204.6,304.1z"/>
	<path class="st21" d="M184.1,284.1L184.1,284.1l-0.2,0C184,284,184,284,184.1,284.1z"/>
	<path class="st22" d="M188.3,304.4c-0.3,3.4-1.4,5.8-4,7.2c-2,1.1-3.6,0.1-3.6-2.2c0.1-2.9,1.4-5.2,3.9-6.8
		c0.8-0.5,1.8-0.7,2.6-0.1C187.8,303.1,188.1,304,188.3,304.4z"/>
	<path class="st9" d="M164.9,270.9c1.2,0.5,2.2,0.9,3.3,1.2c4.2,1.4,7.6-1.1,8.2-5.3c0.5-4.1-0.5-7.9-2.4-11.5
		c-1.3-2.5-2.8-4.8-4.8-6.6c-2-1.9-4.2-3.5-7-4.1c-3.7-0.8-6.6,1.6-7.3,5.1c-0.2,1-0.2,2.1-0.4,3.3c-1.1-1.8-1.3-3.6-1.1-5.5
		c0.2-1.9,0.4-3.7,1.4-5.3c2.5-3.9,5.8-4.5,9.9-3.2c3.3,1.1,6,3.1,8.4,5.5c1.6,1.5,2.6,3.5,3.9,5.2c2,2.6,3.3,5.6,4.2,8.8
		c0.5,1.9,0.7,3.9,1,5.8c0.2,1.9,0.1,3.8-0.4,5.6c-0.9,3.6-3.6,5.7-7,6.1c-2.2,0.2-4.4-0.5-6.4-1.7
		C167.1,273.4,165.8,272.5,164.9,270.9z"/>
</g>
</svg>
